<svg width="1920" height="35" viewBox="0 0 1920 35" fill="none" xmlns="http://www.w3.org/2000/svg">
<path d="M79.3213 8.97992V26.6989H41.0156V10.8386H48.4311V17.8174V18.0234L48.5762 18.1696L49.5275 19.1283L49.6742 19.2761H49.8824H71.4331H71.9331V18.7761V9.39955V9.18806L71.7813 9.04076L71.7186 8.97992H79.3213ZM70.4856 7.97992H41.0156V0.535156H72.1732L79.3213 6.79335V7.97992H70.6883H70.4856Z" stroke="white"/>
<path d="M28.155 0.535156L34.8358 6.37561L26.9695 8.73713V7.5263V7.0263H26.4695H-3.01169L-3.01162 0.535156H28.155ZM26.9695 9.78122L35.3458 7.2666V26.7208H27.9081V17.8357V17.3357H27.4081H7.27867V9.90928H26.4695H26.5429H26.9695V9.78122ZM-3.01172 9.90928H4.40843L4.43865 26.7208H-3.01172V9.90928Z" stroke="white"/>
<path d="M123.392 11.7905V18.2831H95.3349V11.7905H123.392ZM85.9648 11.7905H92.4656V27.0575L85.9648 21.3717V11.7905ZM123.392 21.1375V27.6591H93.4661L93.4744 19.9867L94.4818 20.9915L94.6281 21.1375H94.8349H123.392ZM85.9648 1.48437H123.392V8.92914H115.457H85.9648V1.48437Z" stroke="white"/>
<path d="M129.035 22.3168V1.50781H135.523V18.7864V18.9936L135.669 19.14L137.546 21.017L137.693 21.1635H137.9H165.498V27.6569H134.364L129.035 22.3168Z" stroke="white"/>
<path d="M261.5 7.99287V1.78887L262.642 0.566406H298.901V7.99287H269.426H261.5Z" stroke="white"/>
<path d="M261.5 10.8284L268.927 10.8282V17.8438V18.0513L269.074 18.1978L270.013 19.1345L270.159 19.2805H270.366H298.901V26.7101H266.839L261.5 21.396V10.8284Z" stroke="white"/>
<path d="M440.321 8.97992V26.6989H402.016V10.8386H409.431V17.8174V18.0234L409.576 18.1696L410.528 19.1283L410.674 19.2761H410.882H432.433H432.933V18.7761V9.39955V9.18806L432.781 9.04076L432.719 8.97992H440.321ZM431.486 7.97992H402.016V0.535156H433.173L440.321 6.79335V7.97992H431.688H431.486Z" stroke="white"/>
<path d="M389.155 0.535156L395.836 6.37561L387.969 8.73713V7.5263V7.0263H387.469H357.988L357.988 0.535156H389.155ZM387.969 9.78122L396.346 7.2666V26.7208H388.908V17.8357V17.3357H388.408H368.279V9.90928H387.469H387.543H387.969V9.78122ZM357.988 9.90928H365.408L365.439 26.7208H357.988V9.90928Z" stroke="white"/>
<path d="M484.392 11.7905V18.2831H456.335V11.7905H484.392ZM446.965 11.7905H453.466V27.0575L446.965 21.3717V11.7905ZM484.392 21.1375V27.6591H454.466L454.474 19.9867L455.482 20.9915L455.628 21.1375H455.835H484.392ZM446.965 1.48437H484.392V8.92914H476.457H446.965V1.48437Z" stroke="white"/>
<path d="M304.621 0.5H312.054V26.7406H304.621V0.5Z" stroke="white"/>
<path d="M490.035 22.3168V1.50781H496.523V18.7864V18.9936L496.669 19.14L498.546 21.017L498.693 21.1635H498.9H526.498V27.6569H495.364L490.035 22.3168Z" stroke="white"/>
<path d="M330.817 9.10075V8.88806L330.663 8.74055L329.723 7.83527L329.578 7.69548H329.376H315.848V0.523437H331.991L338.247 6.59635V26.7164H330.817V9.10075ZM343.636 7.68975L336.242 0.523437H353.244V7.68975H343.636Z" stroke="white"/>
<path d="M622.5 7.99287V1.78887L623.642 0.566406H659.901V7.99287H630.426H622.5Z" stroke="white"/>
<path d="M622.5 10.8284L629.927 10.8282V17.8438V18.0513L630.074 18.1978L631.013 19.1345L631.159 19.2805H631.366H659.901V26.7101H627.839L622.5 21.396V10.8284Z" stroke="white"/>
<path d="M801.321 8.97992V26.6989H763.016V10.8386H770.431V17.8174V18.0234L770.576 18.1696L771.528 19.1283L771.674 19.2761H771.882H793.433H793.933V18.7761V9.39955V9.18806L793.781 9.04076L793.719 8.97992H801.321ZM792.486 7.97992H763.016V0.535156H794.173L801.321 6.79335V7.97992H792.688H792.486Z" stroke="white"/>
<path d="M750.155 0.535156L756.836 6.37561L748.969 8.73713V7.5263V7.0263H748.469H718.988L718.988 0.535156H750.155ZM748.969 9.78122L757.346 7.2666V26.7208H749.908V17.8357V17.3357H749.408H729.279V9.90928H748.469H748.543H748.969V9.78122ZM718.988 9.90928H726.408L726.439 26.7208H718.988V9.90928Z" stroke="white"/>
<path d="M845.392 11.7905V18.2831H817.335V11.7905H845.392ZM807.965 11.7905H814.466V27.0575L807.965 21.3717V11.7905ZM845.392 21.1375V27.6591H815.466L815.474 19.9867L816.482 20.9915L816.628 21.1375H816.835H845.392ZM807.965 1.48437H845.392V8.92914H837.457H807.965V1.48437Z" stroke="white"/>
<path d="M665.621 0.5H673.054V26.7406H665.621V0.5Z" stroke="white"/>
<path d="M851.035 22.3168V1.50781H857.523V18.7864V18.9936L857.669 19.14L859.546 21.017L859.693 21.1635H859.9H887.498V27.6569H856.364L851.035 22.3168Z" stroke="white"/>
<path d="M691.817 9.10075V8.88806L691.663 8.74055L690.723 7.83527L690.578 7.69548H690.376H676.848V0.523437H692.991L699.247 6.59635V26.7164H691.817V9.10075ZM704.636 7.68975L697.242 0.523437H714.244V7.68975H704.636Z" stroke="white"/>
<path d="M983.5 7.99287V1.78887L984.642 0.566406H1020.9V7.99287H991.426H983.5Z" stroke="white"/>
<path d="M983.5 10.8284L990.927 10.8282V17.8438V18.0513L991.074 18.1978L992.013 19.1345L992.159 19.2805H992.366H1020.9V26.7101H988.839L983.5 21.396V10.8284Z" stroke="white"/>
<path d="M1162.32 8.97992V26.6989H1124.02V10.8386H1131.43V17.8174V18.0234L1131.58 18.1696L1132.53 19.1283L1132.67 19.2761H1132.88H1154.43H1154.93V18.7761V9.39955V9.18806L1154.78 9.04076L1154.72 8.97992H1162.32ZM1153.49 7.97992H1124.02V0.535156H1155.17L1162.32 6.79335V7.97992H1153.69H1153.49Z" stroke="white"/>
<path d="M1111.15 0.535156L1117.84 6.37561L1109.97 8.73713V7.5263V7.0263H1109.47H1079.99L1079.99 0.535156H1111.15ZM1109.97 9.78122L1118.35 7.2666V26.7208H1110.91V17.8357V17.3357H1110.41H1090.28V9.90928H1109.47H1109.54H1109.97V9.78122ZM1079.99 9.90928H1087.41L1087.44 26.7208H1079.99V9.90928Z" stroke="white"/>
<path d="M1206.39 11.7905V18.2831H1178.33V11.7905H1206.39ZM1168.96 11.7905H1175.47V27.0575L1168.96 21.3717V11.7905ZM1206.39 21.1375V27.6591H1176.47L1176.47 19.9867L1177.48 20.9915L1177.63 21.1375H1177.83H1206.39ZM1168.96 1.48437H1206.39V8.92914H1198.46H1168.96V1.48437Z" stroke="white"/>
<path d="M1026.62 0.5H1034.05V26.7406H1026.62V0.5Z" stroke="white"/>
<path d="M1212.04 22.3168V1.50781H1218.52V18.7864V18.9936L1218.67 19.14L1220.55 21.017L1220.69 21.1635H1220.9H1248.5V27.6569H1217.36L1212.04 22.3168Z" stroke="white"/>
<path d="M1052.82 9.10075V8.88806L1052.66 8.74055L1051.72 7.83527L1051.58 7.69548H1051.38H1037.85V0.523437H1053.99L1060.25 6.59635V26.7164H1052.82V9.10075ZM1065.64 7.68975L1058.24 0.523437H1075.24V7.68975H1065.64Z" stroke="white"/>
<path d="M1344.5 7.99287V1.78887L1345.64 0.566406H1381.9V7.99287H1352.43H1344.5Z" stroke="white"/>
<path d="M1344.5 10.8284L1351.93 10.8282V17.8438V18.0513L1352.07 18.1978L1353.01 19.1345L1353.16 19.2805H1353.37H1381.9V26.7101H1349.84L1344.5 21.396V10.8284Z" stroke="white"/>
<path d="M1523.32 8.97992V26.6989H1485.02V10.8386H1492.43V17.8174V18.0234L1492.58 18.1696L1493.53 19.1283L1493.67 19.2761H1493.88H1515.43H1515.93V18.7761V9.39955V9.18806L1515.78 9.04076L1515.72 8.97992H1523.32ZM1514.49 7.97992H1485.02V0.535156H1516.17L1523.32 6.79335V7.97992H1514.69H1514.49Z" stroke="white"/>
<path d="M1472.15 0.535156L1478.84 6.37561L1470.97 8.73713V7.5263V7.0263H1470.47H1440.99L1440.99 0.535156H1472.15ZM1470.97 9.78122L1479.35 7.2666V26.7208H1471.91V17.8357V17.3357H1471.41H1451.28V9.90928H1470.47H1470.54H1470.97V9.78122ZM1440.99 9.90928H1448.41L1448.44 26.7208H1440.99V9.90928Z" stroke="white"/>
<path d="M1567.39 11.7905V18.2831H1539.33V11.7905H1567.39ZM1529.96 11.7905H1536.47V27.0575L1529.96 21.3717V11.7905ZM1567.39 21.1375V27.6591H1537.47L1537.47 19.9867L1538.48 20.9915L1538.63 21.1375H1538.83H1567.39ZM1529.96 1.48437H1567.39V8.92914H1559.46H1529.96V1.48437Z" stroke="white"/>
<path d="M1387.62 0.5H1395.05V26.7406H1387.62V0.5Z" stroke="white"/>
<path d="M1573.04 22.3168V1.50781H1579.52V18.7864V18.9936L1579.67 19.14L1581.55 21.017L1581.69 21.1635H1581.9H1609.5V27.6569H1578.36L1573.04 22.3168Z" stroke="white"/>
<path d="M1413.82 9.10075V8.88806L1413.66 8.74055L1412.72 7.83527L1412.58 7.69548H1412.38H1398.85V0.523437H1414.99L1421.25 6.59635V26.7164H1413.82V9.10075ZM1426.64 7.68975L1419.24 0.523437H1436.24V7.68975H1426.64Z" stroke="white"/>
<path d="M1705.5 7.99287V1.78887L1706.64 0.566406H1742.9V7.99287H1713.43H1705.5Z" stroke="white"/>
<path d="M1705.5 10.8284L1712.93 10.8282V17.8438V18.0513L1713.07 18.1978L1714.01 19.1345L1714.16 19.2805H1714.37H1742.9V26.7101H1710.84L1705.5 21.396V10.8284Z" stroke="white"/>
<path d="M1884.32 8.97992V26.6989H1846.02V10.8386H1853.43V17.8174V18.0234L1853.58 18.1696L1854.53 19.1283L1854.67 19.2761H1854.88H1876.43H1876.93V18.7761V9.39955V9.18806L1876.78 9.04076L1876.72 8.97992H1884.32ZM1875.49 7.97992H1846.02V0.535156H1877.17L1884.32 6.79335V7.97992H1875.69H1875.49Z" stroke="white"/>
<path d="M1833.15 0.535156L1839.84 6.37561L1831.97 8.73713V7.5263V7.0263H1831.47H1801.99L1801.99 0.535156H1833.15ZM1831.97 9.78122L1840.35 7.2666V26.7208H1832.91V17.8357V17.3357H1832.41H1812.28V9.90928H1831.47H1831.54H1831.97V9.78122ZM1801.99 9.90928H1809.41L1809.44 26.7208H1801.99V9.90928Z" stroke="white"/>
<path d="M1928.39 11.7905V18.2831H1900.33V11.7905H1928.39ZM1890.96 11.7905H1897.47V27.0575L1890.96 21.3717V11.7905ZM1928.39 21.1375V27.6591H1898.47L1898.47 19.9867L1899.48 20.9915L1899.63 21.1375H1899.83H1928.39ZM1890.96 1.48437H1928.39V8.92914H1920.46H1890.96V1.48437Z" stroke="white"/>
<path d="M1748.62 0.5H1756.05V26.7406H1748.62V0.5Z" stroke="white"/>
<path d="M1774.82 9.10075V8.88806L1774.66 8.74055L1773.72 7.83527L1773.58 7.69548H1773.38H1759.85V0.523437H1775.99L1782.25 6.59635V26.7164H1774.82V9.10075ZM1787.64 7.68975L1780.24 0.523437H1797.24V7.68975H1787.64Z" stroke="white"/>
<path d="M36.5156 6.03516H68.3612L75.8213 12.5666V14.4799H36.5156L36.5167 16.3386H44.9311V23.8174L45.8824 24.7761H67.4331V15.3996L66.4856 14.4799H36.5156H75.8213V33.1989H36.5156V14.4799V6.03516Z" fill="white"/>
<path d="M-7.51161 6.03516H24.3427L31.8458 12.5945L22.4695 15.4093H-7.51172H0.907536L0.939551 33.2208H23.4081V23.8357H2.77867V15.4093H22.4695V13.5263H-7.5117L-7.51172 15.4093H22.4695L31.8458 12.5945V33.2208H23.4081H0.939551H-7.51172V15.4093L-7.51161 6.03516Z" fill="white"/>
<path d="M81.4648 6.98438H119.892V15.4291H81.4648V17.2905H88.9656V34.1591L88.9757 24.7831L90.8349 26.6375H119.892V24.7831H90.8349V17.2905H88.9656H119.892V15.4291H111.457H81.4648H119.892V34.1591H88.9656L81.4648 27.5987V15.4291V6.98438Z" fill="white"/>
<path d="M124.535 7.00781H132.023V24.7864L133.9 26.6635H161.998V34.1569H130.157L124.535 28.5236V7.00781Z" fill="white"/>
<path d="M257 7.59166L258.425 6.06641H295.401V14.4929H265.426H257V7.59166Z" fill="white"/>
<path d="M257 16.3285L265.427 16.3282V23.8438L266.366 24.7805H295.401V33.2101H262.633L257 27.6038V16.3285Z" fill="white"/>
<path d="M397.516 6.03516H429.361L436.821 12.5666V14.4799H397.516L397.517 16.3386H405.931V23.8174L406.882 24.7761H428.433V15.3996L427.486 14.4799H397.516H436.821V33.1989H397.516V14.4799V6.03516Z" fill="white"/>
<path d="M353.488 6.03516H385.343L392.846 12.5945L383.469 15.4093H353.488H361.908L361.94 33.2208H384.408V23.8357H363.779V15.4093H383.469V13.5263H353.488L353.488 15.4093H383.469L392.846 12.5945V33.2208H384.408H361.94H353.488V15.4093L353.488 6.03516Z" fill="white"/>
<path d="M442.465 6.98438H480.892V15.4291H442.465V17.2905H449.966V34.1591L449.976 24.7831L451.835 26.6375H480.892V24.7831H451.835V17.2905H449.966H480.892V15.4291H472.457H442.465H480.892V34.1591H449.966L442.465 27.5987V15.4291V6.98438Z" fill="white"/>
<path d="M300.121 6H308.554V33.2406H300.121V6Z" fill="white"/>
<path d="M485.535 7.00781H493.023V24.7864L494.9 26.6635H522.998V34.1569H491.157L485.535 28.5236V7.00781Z" fill="white"/>
<path d="M326.317 15.1008L325.376 14.1955H311.348V6.02344H328.194H349.744V14.1897H339.434L331.008 6.02344H328.194L334.747 12.3849V33.2164H326.317V15.1008Z" fill="white"/>
<path d="M618 7.59166L619.425 6.06641H656.401V14.4929H626.426H618V7.59166Z" fill="white"/>
<path d="M618 16.3285L626.427 16.3282V23.8438L627.366 24.7805H656.401V33.2101H623.633L618 27.6038V16.3285Z" fill="white"/>
<path d="M758.516 6.03516H790.361L797.821 12.5666V14.4799H758.516L758.517 16.3386H766.931V23.8174L767.882 24.7761H789.433V15.3996L788.486 14.4799H758.516H797.821V33.1989H758.516V14.4799V6.03516Z" fill="white"/>
<path d="M714.488 6.03516H746.343L753.846 12.5945L744.469 15.4093H714.488H722.908L722.94 33.2208H745.408V23.8357H724.779V15.4093H744.469V13.5263H714.488L714.488 15.4093H744.469L753.846 12.5945V33.2208H745.408H722.94H714.488V15.4093L714.488 6.03516Z" fill="white"/>
<path d="M803.465 6.98438H841.892V15.4291H803.465V17.2905H810.966V34.1591L810.976 24.7831L812.835 26.6375H841.892V24.7831H812.835V17.2905H810.966H841.892V15.4291H833.457H803.465H841.892V34.1591H810.966L803.465 27.5987V15.4291V6.98438Z" fill="white"/>
<path d="M661.121 6H669.554V33.2406H661.121V6Z" fill="white"/>
<path d="M846.535 7.00781H854.023V24.7864L855.9 26.6635H883.998V34.1569H852.157L846.535 28.5236V7.00781Z" fill="white"/>
<path d="M687.317 15.1008L686.376 14.1955H672.348V6.02344H689.194H710.744V14.1897H700.434L692.008 6.02344H689.194L695.747 12.3849V33.2164H687.317V15.1008Z" fill="white"/>
<path d="M979 7.59166L980.425 6.06641H1017.4V14.4929H987.426H979V7.59166Z" fill="white"/>
<path d="M979 16.3285L987.427 16.3282V23.8438L988.366 24.7805H1017.4V33.2101H984.633L979 27.6038V16.3285Z" fill="white"/>
<path d="M1119.52 6.03516H1151.36L1158.82 12.5666V14.4799H1119.52L1119.52 16.3386H1127.93V23.8174L1128.88 24.7761H1150.43V15.3996L1149.49 14.4799H1119.52H1158.82V33.1989H1119.52V14.4799V6.03516Z" fill="white"/>
<path d="M1075.49 6.03516H1107.34L1114.85 12.5945L1105.47 15.4093H1075.49H1083.91L1083.94 33.2208H1106.41V23.8357H1085.78V15.4093H1105.47V13.5263H1075.49L1075.49 15.4093H1105.47L1114.85 12.5945V33.2208H1106.41H1083.94H1075.49V15.4093L1075.49 6.03516Z" fill="white"/>
<path d="M1164.46 6.98438H1202.89V15.4291H1164.46V17.2905H1171.97V34.1591L1171.98 24.7831L1173.83 26.6375H1202.89V24.7831H1173.83V17.2905H1171.97H1202.89V15.4291H1194.46H1164.46H1202.89V34.1591H1171.97L1164.46 27.5987V15.4291V6.98438Z" fill="white"/>
<path d="M1022.12 6H1030.55V33.2406H1022.12V6Z" fill="white"/>
<path d="M1207.54 7.00781H1215.02V24.7864L1216.9 26.6635H1245V34.1569H1213.16L1207.54 28.5236V7.00781Z" fill="white"/>
<path d="M1048.32 15.1008L1047.38 14.1955H1033.35V6.02344H1050.19H1071.74V14.1897H1061.43L1053.01 6.02344H1050.19L1056.75 12.3849V33.2164H1048.32V15.1008Z" fill="white"/>
<path d="M1340 7.59166L1341.42 6.06641H1378.4V14.4929H1348.43H1340V7.59166Z" fill="white"/>
<path d="M1340 16.3285L1348.43 16.3282V23.8438L1349.37 24.7805H1378.4V33.2101H1345.63L1340 27.6038V16.3285Z" fill="white"/>
<path d="M1480.52 6.03516H1512.36L1519.82 12.5666V14.4799H1480.52L1480.52 16.3386H1488.93V23.8174L1489.88 24.7761H1511.43V15.3996L1510.49 14.4799H1480.52H1519.82V33.1989H1480.52V14.4799V6.03516Z" fill="white"/>
<path d="M1436.49 6.03516H1468.34L1475.85 12.5945L1466.47 15.4093H1436.49H1444.91L1444.94 33.2208H1467.41V23.8357H1446.78V15.4093H1466.47V13.5263H1436.49L1436.49 15.4093H1466.47L1475.85 12.5945V33.2208H1467.41H1444.94H1436.49V15.4093L1436.49 6.03516Z" fill="white"/>
<path d="M1525.46 6.98438H1563.89V15.4291H1525.46V17.2905H1532.97V34.1591L1532.98 24.7831L1534.83 26.6375H1563.89V24.7831H1534.83V17.2905H1532.97H1563.89V15.4291H1555.46H1525.46H1563.89V34.1591H1532.97L1525.46 27.5987V15.4291V6.98438Z" fill="white"/>
<path d="M1383.12 6H1391.55V33.2406H1383.12V6Z" fill="white"/>
<path d="M1568.54 7.00781H1576.02V24.7864L1577.9 26.6635H1606V34.1569H1574.16L1568.54 28.5236V7.00781Z" fill="white"/>
<path d="M1409.32 15.1008L1408.38 14.1955H1394.35V6.02344H1411.19H1432.74V14.1897H1422.43L1414.01 6.02344H1411.19L1417.75 12.3849V33.2164H1409.32V15.1008Z" fill="white"/>
<path d="M1701 7.59166L1702.42 6.06641H1739.4V14.4929H1709.43H1701V7.59166Z" fill="white"/>
<path d="M1701 16.3285L1709.43 16.3282V23.8438L1710.37 24.7805H1739.4V33.2101H1706.63L1701 27.6038V16.3285Z" fill="white"/>
<path d="M1841.52 6.03516H1873.36L1880.82 12.5666V14.4799H1841.52L1841.52 16.3386H1849.93V23.8174L1850.88 24.7761H1872.43V15.3996L1871.49 14.4799H1841.52H1880.82V33.1989H1841.52V14.4799V6.03516Z" fill="white"/>
<path d="M1797.49 6.03516H1829.34L1836.85 12.5945L1827.47 15.4093H1797.49H1805.91L1805.94 33.2208H1828.41V23.8357H1807.78V15.4093H1827.47V13.5263H1797.49L1797.49 15.4093H1827.47L1836.85 12.5945V33.2208H1828.41H1805.94H1797.49V15.4093L1797.49 6.03516Z" fill="white"/>
<path d="M1886.46 6.98438H1924.89V15.4291H1886.46V17.2905H1893.97V34.1591L1893.98 24.7831L1895.83 26.6375H1924.89V24.7831H1895.83V17.2905H1893.97H1924.89V15.4291H1916.46H1886.46H1924.89V34.1591H1893.97L1886.46 27.5987V15.4291V6.98438Z" fill="white"/>
<path d="M1744.12 6H1752.55V33.2406H1744.12V6Z" fill="white"/>
<path d="M1770.32 15.1008L1769.38 14.1955H1755.35V6.02344H1772.19H1793.74V14.1897H1783.43L1775.01 6.02344H1772.19L1778.75 12.3849V33.2164H1770.32V15.1008Z" fill="white"/>
</svg>
