<svg width="1119" height="32" viewBox="0 0 1119 32" fill="none" xmlns="http://www.w3.org/2000/svg">
<path d="M307 14.7867L308.787 14.7867L308.787 11.2133L307 11.2133L307 14.7867ZM2 11.2133C1.01321 11.2133 0.213257 12.0132 0.213257 13C0.213257 13.9868 1.01321 14.7867 2 14.7867L2 11.2133ZM307 11.2133L2 11.2133L2 14.7867L307 14.7867L307 11.2133Z" fill="#005E5E"/>
<path d="M1114 6.78672H1115.79V3.21328H1114V6.78672ZM246.5 24.2133C245.513 24.2133 244.713 25.0132 244.713 26C244.713 26.9868 245.513 27.7867 246.5 27.7867V24.2133ZM532 5V3.21328H531.132L530.595 3.89613L532 5ZM515.5 26V27.7867H516.368L516.905 27.1039L515.5 26ZM530.595 3.89613L514.095 24.8961L516.905 27.1039L533.405 6.10387L530.595 3.89613ZM515.5 24.2133L246.5 24.2133V27.7867L515.5 27.7867V24.2133ZM1114 3.21328L532 3.21328V6.78672L1114 6.78672V3.21328Z" fill="#005E5E"/>
<rect width="11" height="11" transform="matrix(-1 0 0 1 332 21)" fill="#D9D9D9"/>
<rect width="11" height="11" transform="matrix(-1 0 0 1 1119 0)" fill="#D9D9D9"/>
</svg>
