<svg width="1359" height="144" viewBox="0 0 1359 144" fill="none" xmlns="http://www.w3.org/2000/svg">
<path d="M0 8.1128L7.27988 0.320312H196.189V43.371H43.0507H0V8.1128Z" fill="white"/>
<path d="M0 52.7439L43.0527 52.7426V91.1396L47.8502 95.9251H196.188V138.992H28.7794L0 110.349V52.7439Z" fill="white"/>
<path d="M717.895 0.179688H880.593L918.707 33.5485V43.3239H717.895L717.9 52.8196H760.889V91.0292L765.749 95.9269H875.851V48.0223L871.011 43.3239H717.895H918.707V138.959H717.895V43.3239V0.179688Z" fill="white"/>
<path d="M492.969 0.179688H655.713L694.046 33.691L646.142 48.072H492.969H535.983L536.146 139.071H650.938V91.1227H545.542V48.072H646.142V38.4518H492.969L492.969 48.072H646.142L694.046 33.691V139.071H650.938H536.146H492.969V48.072L492.969 0.179688Z" fill="white"/>
<path d="M947.555 5.01562H1143.88V48.1598H947.555V57.6697H985.876V143.851L985.927 95.9493L995.426 105.423H1143.88V95.9493H995.426V57.6697H985.876H1143.88V48.1598H1100.78H947.555H1143.88V143.851H985.876L947.555 110.334V48.1598V5.01562Z" fill="white"/>
<path d="M220.324 0H263.405V139.172H220.324V0Z" fill="white"/>
<path d="M1167.59 5.14062H1205.85V95.9715L1215.44 105.561H1358.99V143.845H1196.31L1167.59 115.064V5.14062Z" fill="white"/>
<path d="M354.149 46.5009L349.344 41.8759H277.672V0.125H363.738H473.84V41.8466H421.164L378.115 0.125H363.738L397.218 32.6255V139.054H354.149V46.5009Z" fill="white"/>
</svg>
