<svg width="2801" height="670" viewBox="0 0 2801 670" fill="none" xmlns="http://www.w3.org/2000/svg">
<path d="M24.001 259.858C23.0142 259.858 22.2142 260.658 22.2142 261.645C22.2142 262.631 23.0142 263.431 24.001 263.431V259.858ZM697 259.858L24.001 259.858V263.431L697 263.431V259.858Z" fill="#005E5E"/>
<path d="M2 44.225C1.01324 44.225 0.213257 45.0249 0.213257 46.0117C0.213257 46.9985 1.01324 47.7984 2 47.7984V44.225ZM394.147 247.012L392.904 248.295L393.423 248.798H394.147V247.012ZM318.734 173.939L319.977 172.655L318.734 173.939ZM281.028 137.402L279.784 138.685L281.028 137.402ZM252.748 109.999L253.991 108.716L252.748 109.999ZM248.035 105.432L249.278 104.149L248.758 103.646H248.035V105.432ZM191.665 105.432L190.395 106.689L190.919 107.219H191.665V105.432ZM160.291 73.7414L159.021 74.9984L160.291 73.7414ZM136.761 49.9731L135.491 51.2301L135.491 51.2301L136.761 49.9731ZM132.839 46.0117L134.109 44.7547L133.584 44.225H132.839V46.0117ZM696.5 245.225L538.269 245.225V248.798L696.5 248.798V245.225ZM538.269 245.225H461.404V248.798H538.269V245.225ZM461.404 245.225H422.971V248.798H461.404V245.225ZM422.971 245.225H403.755V248.798H422.971V245.225ZM403.755 245.225H394.147V248.798H403.755V245.225ZM395.39 245.729L319.977 172.655L317.491 175.222L392.904 248.295L395.39 245.729ZM319.977 172.655L282.271 136.119L279.784 138.685L317.491 175.222L319.977 172.655ZM282.271 136.119L263.418 117.85L260.931 120.417L279.784 138.685L282.271 136.119ZM263.418 117.85L253.991 108.716L251.505 111.283L260.931 120.417L263.418 117.85ZM253.991 108.716L249.278 104.149L246.791 106.716L251.505 111.283L253.991 108.716ZM248.035 103.646H217.971V107.219H248.035V103.646ZM217.971 103.646H202.939V107.219H217.971V103.646ZM202.939 103.646H195.423V107.219H202.939V103.646ZM195.423 103.646H191.665V107.219H195.423V103.646ZM192.934 104.175L161.561 72.4843L159.021 74.9984L190.395 106.689L192.934 104.175ZM161.561 72.4843L145.874 56.6388L143.334 59.1529L159.021 74.9984L161.561 72.4843ZM145.874 56.6388L138.03 48.7161L135.491 51.2301L143.334 59.1529L145.874 56.6388ZM138.03 48.7161L134.109 44.7547L131.569 47.2687L135.491 51.2301L138.03 48.7161ZM132.839 44.225L2 44.225V47.7984L132.839 47.7984V44.225Z" fill="#005E5E"/>
<path d="M346.228 70.714C345.511 70.0357 344.38 70.0669 343.702 70.7836C343.024 71.5004 343.055 72.6312 343.772 73.3095L346.228 70.714ZM396.2 233.012L394.976 234.313L395.492 234.798H396.2V233.012ZM377.196 215.123H375.409V215.895L375.971 216.424L377.196 215.123ZM377.196 102.479H378.983V101.71L378.424 101.181L377.196 102.479ZM696.5 231.225L541.753 231.225V234.798L696.5 234.798V231.225ZM541.753 231.225H466.629V234.798H541.753V231.225ZM466.629 231.225H429.067V234.798H466.629V231.225ZM429.067 231.225H410.286V234.798H429.067V231.225ZM410.286 231.225H400.896V234.798H410.286V231.225ZM400.896 231.225H396.2V234.798H400.896V231.225ZM397.425 231.711L387.923 222.766L385.473 225.368L394.976 234.313L397.425 231.711ZM387.923 222.766L383.172 218.294L380.722 220.896L385.473 225.368L387.923 222.766ZM383.172 218.294L378.421 213.822L375.971 216.424L380.722 220.896L383.172 218.294ZM378.983 215.123V156.984H375.409V215.123H378.983ZM378.983 156.984V127.914H375.409V156.984H378.983ZM378.983 127.914V113.38H375.409V127.914H378.983ZM378.983 113.38V106.112H375.409V113.38H378.983ZM378.983 106.112V102.479H375.409V106.112H378.983ZM378.424 101.181L346.228 70.714L343.772 73.3095L375.968 103.776L378.424 101.181Z" fill="#005E5E"/>
<path d="M318.249 22.7316C317.543 22.0418 316.412 22.0546 315.722 22.7602C315.032 23.4658 315.045 24.597 315.751 25.2868L318.249 22.7316ZM396.732 218.762L395.469 220.025L395.992 220.548H396.732V218.762ZM388.468 210.498H386.682V211.238L387.205 211.762L388.468 210.498ZM388.468 93.8797H390.255V93.1278L389.717 92.6021L388.468 93.8797ZM696.5 216.975L542.126 216.975V220.548L696.5 220.548V216.975ZM542.126 216.975H467.084V220.548H542.126V216.975ZM467.084 216.975H429.563V220.548H467.084V216.975ZM429.563 216.975H410.802V220.548H429.563V216.975ZM410.802 216.975H401.422V220.548H410.802V216.975ZM401.422 216.975H396.732V220.548H401.422V216.975ZM397.995 217.498L389.732 209.235L387.205 211.762L395.469 220.025L397.995 217.498ZM390.255 210.498V150.308H386.682V210.498H390.255ZM390.255 150.308V120.213H386.682V150.308H390.255ZM390.255 120.213V105.165H386.682V120.213H390.255ZM390.255 105.165V97.6416H386.682V105.165H390.255ZM390.255 97.6416V93.8797H386.682V97.6416H390.255ZM389.717 92.6021L318.249 22.7316L315.751 25.2868L387.219 95.1573L389.717 92.6021Z" fill="#005E5E"/>
<path d="M696 277.733H697.787V274.16H696V277.733ZM286 321.061C285.014 321.061 284.214 321.861 284.214 322.848C284.214 323.834 285.014 324.634 286 324.634V321.061ZM528.994 275.946V274.16H528.254L527.731 274.683L528.994 275.946ZM503.98 300.96L505.244 302.224V302.224L503.98 300.96ZM491.473 313.467L490.21 312.204L491.473 313.467ZM485.22 319.721L483.956 318.457V318.457L485.22 319.721ZM482.093 322.848V324.634H482.833L483.356 324.111L482.093 322.848ZM696 274.16H611.184V277.733H696V274.16ZM611.184 274.16H570.982V277.733H611.184V274.16ZM570.982 274.16H550.882V277.733H570.982V274.16ZM550.882 274.16H540.831V277.733H550.882V274.16ZM540.831 274.16H535.806V277.733H540.831V274.16ZM535.806 274.16H528.994V277.733H535.806V274.16ZM527.731 274.683L502.717 299.697L505.244 302.224L530.258 277.21L527.731 274.683ZM502.717 299.697L490.21 312.204L492.737 314.731L505.244 302.224L502.717 299.697ZM490.21 312.204L483.956 318.457L486.483 320.984L492.737 314.731L490.21 312.204ZM483.956 318.457L480.83 321.584L483.356 324.111L486.483 320.984L483.956 318.457ZM482.093 321.061L286 321.061V324.634L482.093 324.634V321.061Z" fill="#005E5E"/>
<path d="M213.001 413.077C212.014 413.077 211.214 413.877 211.214 414.863C211.214 415.85 212.014 416.65 213.001 416.65V413.077ZM532.824 290.24V288.453H532.084L531.56 288.976L532.824 290.24ZM468.502 354.561L469.765 355.825L468.502 354.561ZM436.341 386.722L435.077 385.459V385.459L436.341 386.722ZM420.26 402.803L421.524 404.066V404.066L420.26 402.803ZM412.22 410.843L410.957 409.58V409.58L412.22 410.843ZM408.2 414.863V416.65H408.94L409.463 416.127L408.2 414.863ZM696.5 288.453H611.439V292.026H696.5V288.453ZM611.439 288.453H571.238V292.026H611.439V288.453ZM571.238 288.453H551.138V292.026H571.238V288.453ZM551.138 288.453H541.087V292.026H551.138V288.453ZM541.087 288.453H532.824V292.026H541.087V288.453ZM531.56 288.976L467.238 353.298L469.765 355.825L534.087 291.503L531.56 288.976ZM467.238 353.298L435.077 385.459L437.604 387.986L469.765 355.825L467.238 353.298ZM435.077 385.459L418.997 401.54L421.524 404.066L437.604 387.986L435.077 385.459ZM418.997 401.54L410.957 409.58L413.483 412.107L421.524 404.066L418.997 401.54ZM410.957 409.58L406.937 413.6L409.463 416.127L413.483 412.107L410.957 409.58ZM408.2 413.077H213.001V416.65H408.2V413.077Z" fill="#005E5E"/>
<path d="M180.729 634.303C180.036 635.005 180.043 636.137 180.745 636.83C181.447 637.523 182.578 637.516 183.272 636.814L180.729 634.303ZM634.041 305.014L634.041 303.227L633.326 303.227L632.808 303.72L634.041 305.014ZM615.28 322.881L614.048 321.588L615.28 322.881ZM605.9 331.815L607.132 333.109L605.9 331.815ZM601.21 336.282L599.977 334.988L599.423 335.516L599.423 336.282L601.21 336.282ZM601.21 464.033L602.453 465.315L602.996 464.789L602.996 464.033L601.21 464.033ZM582.784 481.9L581.54 480.617L582.784 481.9ZM573.571 490.833L574.815 492.116L573.571 490.833ZM568.965 495.3L570.209 496.583L570.209 496.583L568.965 495.3ZM566.662 497.534L566.662 499.32L567.386 499.32L567.905 498.816L566.662 497.534ZM367.948 497.534L367.948 499.32L367.948 499.32L367.948 497.534ZM334.83 497.534L334.83 495.747L334.83 495.747L334.83 497.534ZM318.27 497.534L318.27 495.747L317.523 495.747L316.999 496.278L318.27 497.534ZM696.5 303.227L648.334 303.227L648.334 306.801L696.5 306.801L696.5 303.227ZM648.334 303.227L640.294 303.227L640.294 306.801L648.334 306.801L648.334 303.227ZM640.294 303.227L634.041 303.227L634.041 306.801L640.294 306.801L640.294 303.227ZM632.808 303.72L614.048 321.588L616.512 324.175L635.273 306.308L632.808 303.72ZM614.048 321.588L604.668 330.521L607.132 333.109L616.512 324.175L614.048 321.588ZM604.668 330.521L599.977 334.988L602.442 337.576L607.132 333.109L604.668 330.521ZM599.423 336.282L599.423 401.048L602.996 401.048L602.996 336.282L599.423 336.282ZM599.423 401.048L599.423 433.431L602.996 433.431L602.996 401.048L599.423 401.048ZM599.423 433.431L599.423 449.622L602.996 449.622L602.996 433.431L599.423 433.431ZM599.423 449.622L599.423 457.718L602.996 457.718L602.996 449.622L599.423 449.622ZM599.423 457.718L599.423 464.033L602.996 464.033L602.996 457.718L599.423 457.718ZM599.966 462.75L581.54 480.617L584.028 483.182L602.453 465.315L599.966 462.75ZM581.54 480.617L572.327 489.551L574.815 492.116L584.028 483.182L581.54 480.617ZM572.327 489.551L567.721 494.017L570.209 496.583L574.815 492.116L572.327 489.551ZM567.721 494.017L565.418 496.251L567.905 498.816L570.209 496.583L567.721 494.017ZM566.662 495.747L434.186 495.747L434.186 499.32L566.662 499.32L566.662 495.747ZM434.186 495.747L367.948 495.747L367.948 499.32L434.186 499.32L434.186 495.747ZM367.948 495.747L334.83 495.747L334.83 499.32L367.948 499.32L367.948 495.747ZM334.83 495.747L318.27 495.747L318.27 499.32L334.83 499.32L334.83 495.747ZM316.999 496.278L180.729 634.303L183.272 636.814L319.542 498.789L316.999 496.278Z" fill="#005E5E"/>
<path d="M476.281 513.272C475.294 513.272 474.495 514.072 474.495 515.059C474.495 516.045 475.294 516.845 476.281 516.845L476.281 513.272ZM731.782 430.05L731.782 431.837L733.569 431.837L733.569 430.05L731.782 430.05ZM697.835 430.05L697.835 428.263L697.835 430.05ZM668.13 430.05L668.13 428.263L667.365 428.263L666.837 428.817L668.13 430.05ZM624.914 475.388L626.207 476.621L624.914 475.388ZM603.306 498.057L602.013 496.824V496.824L603.306 498.057ZM592.502 509.391L593.795 510.624V510.624L592.502 509.391ZM587.1 515.059L587.1 516.845L587.865 516.845L588.393 516.291L587.1 515.059ZM733.569 395.655L733.569 323.012L729.996 323.012L729.996 395.655L733.569 395.655ZM733.569 415.309L733.569 395.655L729.996 395.655L729.996 415.309L733.569 415.309ZM733.569 425.136L733.569 415.309L729.996 415.309L729.996 425.136L733.569 425.136ZM733.569 430.05L733.569 425.136L729.996 425.136L729.996 430.05L733.569 430.05ZM697.835 431.836L731.782 431.837L731.782 428.263L697.835 428.263L697.835 431.836ZM680.861 431.837L697.835 431.836L697.835 428.263L680.861 428.263L680.861 431.837ZM672.374 431.837L680.861 431.837L680.861 428.263L672.374 428.263L672.374 431.837ZM668.13 431.837L672.374 431.837L672.374 428.263L668.13 428.263L668.13 431.837ZM626.207 476.621L669.424 431.283L666.837 428.817L623.621 474.155L626.207 476.621ZM604.599 499.29L626.207 476.621L623.621 474.155L602.013 496.824L604.599 499.29ZM593.795 510.624L604.599 499.29L602.013 496.824L591.209 508.159L593.795 510.624ZM476.281 516.845L587.1 516.845L587.1 513.272L476.281 513.272L476.281 516.845ZM588.393 516.291L593.795 510.624L591.209 508.159L585.806 513.826L588.393 516.291Z" fill="#005E5E"/>
<path d="M539.726 665.978C539.034 666.682 539.044 667.813 539.748 668.505C540.452 669.197 541.583 669.187 542.274 668.483L539.726 665.978ZM744.714 449.814L744.714 451.601L746.501 451.601L746.501 449.814L744.714 449.814ZM683.742 449.814L683.742 448.027L683.742 448.027L683.742 449.814ZM679.387 449.814L679.387 451.601L679.387 451.601L679.387 449.814ZM677.21 449.814L677.21 448.027L676.475 448.027L675.953 448.543L677.21 449.814ZM634.134 492.416L635.391 493.686L634.134 492.416ZM612.596 513.717L611.34 512.447L612.596 513.717ZM601.828 524.367L600.571 523.097L601.828 524.367ZM596.443 529.693L597.699 530.963L596.443 529.693ZM593.751 532.355L592.494 531.085L591.964 531.609L591.964 532.355L593.751 532.355ZM593.736 575.672L591.949 575.672L593.736 575.672ZM593.728 597.331L595.515 597.331L593.728 597.331ZM593.724 608.16L591.937 608.159L593.724 608.16ZM593.722 613.574L594.997 614.827L595.509 614.306L595.509 613.575L593.722 613.574ZM746.501 404.587L746.501 322.012L742.928 322.012L742.928 404.587L746.501 404.587ZM746.501 428.708L746.501 404.587L742.928 404.587L742.928 428.708L746.501 428.708ZM746.501 440.769L746.501 428.708L742.928 428.708L742.928 440.769L746.501 440.769ZM746.501 446.799L746.501 440.769L742.928 440.769L742.928 446.799L746.501 446.799ZM746.501 449.814L746.501 446.799L742.928 446.799L742.928 449.814L746.501 449.814ZM709.873 451.601L744.714 451.601L744.714 448.027L709.873 448.027L709.873 451.601ZM692.453 451.601L709.873 451.601L709.873 448.027L692.453 448.027L692.453 451.601ZM683.742 451.601L692.453 451.601L692.453 448.027L683.742 448.027L683.742 451.601ZM679.387 451.601L683.742 451.601L683.742 448.027L679.387 448.027L679.387 451.601ZM677.21 451.601L679.387 451.601L679.387 448.027L677.21 448.027L677.21 451.601ZM635.391 493.686L678.466 451.084L675.953 448.543L632.878 491.146L635.391 493.686ZM613.853 514.987L635.391 493.686L632.878 491.146L611.34 512.447L613.853 514.987ZM603.084 525.638L613.853 514.987L611.34 512.447L600.571 523.097L603.084 525.638ZM597.699 530.963L603.084 525.638L600.571 523.097L595.187 528.422L597.699 530.963ZM595.007 533.626L597.699 530.963L595.187 528.422L592.494 531.085L595.007 533.626ZM595.522 575.673L595.538 532.356L591.964 532.355L591.949 575.672L595.522 575.673ZM595.515 597.331L595.522 575.673L591.949 575.672L591.941 597.33L595.515 597.331ZM595.511 608.16L595.515 597.331L591.941 597.33L591.937 608.159L595.511 608.16ZM595.509 613.575L595.511 608.16L591.937 608.159L591.935 613.574L595.509 613.575ZM568.636 641.655L594.997 614.827L592.448 612.322L566.087 639.15L568.636 641.655ZM555.455 655.069L568.636 641.655L566.087 639.15L552.906 652.564L555.455 655.069ZM542.274 668.483L548.865 661.776L546.316 659.271L539.726 665.978L542.274 668.483ZM548.865 661.776L555.455 655.069L552.906 652.564L546.316 659.271L548.865 661.776Z" fill="#005E5E"/>
<path d="M668.213 611.848C668.213 612.834 669.013 613.634 670 613.634C670.987 613.634 671.787 612.834 671.787 611.848L668.213 611.848ZM757.326 454.616L758.576 455.893L759.113 455.367L759.113 454.616L757.326 454.616ZM713.551 497.498L714.802 498.774L714.802 498.774L713.551 497.498ZM691.664 518.938L690.414 517.662L690.407 517.668L691.664 518.938ZM670 540.379L668.743 539.109L668.213 539.633L668.213 540.379L670 540.379ZM759.113 408.162L759.113 321.512L755.539 321.512L755.539 408.162L759.113 408.162ZM759.113 434.069L759.113 408.162L755.539 408.162L755.539 434.069L759.113 434.069ZM759.113 454.616L759.113 434.069L755.539 434.069L755.539 454.616L759.113 454.616ZM714.802 498.774L758.576 455.893L756.076 453.34L712.301 496.221L714.802 498.774ZM692.914 520.215L714.802 498.774L712.301 496.221L690.414 517.662L692.914 520.215ZM671.787 611.848L671.787 540.379L668.213 540.379L668.213 611.848L671.787 611.848ZM671.257 541.649L692.921 520.208L690.407 517.668L668.743 539.109L671.257 541.649Z" fill="#005E5E"/>
<rect x="693" y="214.012" width="7" height="7" fill="#00353B" stroke="#005E5E" stroke-width="4"/>
<rect x="741" y="318.012" width="7" height="7" fill="#D9D9D9" stroke="#005E5E" stroke-width="4"/>
<path d="M2777.23 237.858C2778.22 237.858 2779.02 238.658 2779.02 239.645C2779.02 240.631 2778.22 241.431 2777.23 241.431V237.858ZM2109 237.858L2777.23 237.858V241.431L2109 241.431V237.858Z" fill="#005E5E"/>
<path d="M2798.67 22.0594C2799.66 22.0594 2800.46 22.8593 2800.46 23.8461C2800.46 24.8329 2799.66 25.6328 2798.67 25.6328V22.0594ZM2406.71 225.348L2407.96 226.629L2407.44 227.134H2406.71V225.348ZM2552.76 83.4151L2551.51 82.1338L2552.03 81.6283H2552.76V83.4151ZM2609.1 83.4151L2610.37 84.6702L2609.85 85.2018H2609.1V83.4151ZM2663.98 27.8174L2665.25 29.0725L2663.98 27.8174ZM2667.9 23.8461L2666.63 22.5909L2667.15 22.0594H2667.9V23.8461ZM2109 223.561L2262.66 223.561V227.134L2109 227.134V223.561ZM2262.66 223.561H2339.49V227.134H2262.66V223.561ZM2339.49 223.561H2377.9V227.134H2339.49V223.561ZM2377.9 223.561H2397.11V227.134H2377.9V223.561ZM2397.11 223.561H2406.71V227.134H2397.11V223.561ZM2405.47 224.066L2480.84 150.811L2483.33 153.373L2407.96 226.629L2405.47 224.066ZM2480.84 150.811L2518.53 114.183L2521.02 116.746L2483.33 153.373L2480.84 150.811ZM2518.53 114.183L2537.38 95.8692L2539.87 98.4318L2521.02 116.746L2518.53 114.183ZM2537.38 95.8692L2546.8 86.7122L2549.29 89.2748L2539.87 98.4318L2537.38 95.8692ZM2546.8 86.7122L2551.51 82.1338L2554 84.6964L2549.29 89.2748L2546.8 86.7122ZM2552.76 81.6283H2582.81V85.2018H2552.76V81.6283ZM2582.81 81.6283H2597.83V85.2018H2582.81V81.6283ZM2597.83 81.6283H2605.34V85.2018H2597.83V81.6283ZM2605.34 81.6283H2609.1V85.2018H2605.34V81.6283ZM2607.83 82.1599L2639.19 50.3898L2641.73 52.9001L2610.37 84.6702L2607.83 82.1599ZM2639.19 50.3898L2654.87 34.5047L2657.41 37.015L2641.73 52.9001L2639.19 50.3898ZM2654.87 34.5047L2662.71 26.5622L2665.25 29.0725L2657.41 37.015L2654.87 34.5047ZM2662.71 26.5622L2666.63 22.5909L2669.17 25.1012L2665.25 29.0725L2662.71 26.5622ZM2667.9 22.0594L2798.67 22.0594V25.6328L2667.9 25.6328V22.0594Z" fill="#005E5E"/>
<path d="M2454.4 48.9481C2455.11 48.2699 2456.24 48.3012 2456.92 49.018C2457.6 49.7347 2457.57 50.8656 2456.85 51.5438L2454.4 48.9481ZM2404.48 211.051L2405.7 212.352L2405.19 212.838H2404.48V211.051ZM2423.46 193.184H2425.25V193.956L2424.69 194.485L2423.46 193.184ZM2423.46 80.676H2421.68V79.9068L2422.23 79.3782L2423.46 80.676ZM2109 209.264L2259.08 209.264V212.838L2109 212.838V209.264ZM2259.08 209.264H2334.13V212.838H2259.08V209.264ZM2334.13 209.264H2371.65V212.838H2334.13V209.264ZM2371.65 209.264H2390.41V212.838H2371.65V209.264ZM2390.41 209.264H2399.79V212.838H2390.41V209.264ZM2399.79 209.264H2404.48V212.838H2399.79V209.264ZM2403.25 209.75L2412.75 200.816L2415.2 203.418L2405.7 212.352L2403.25 209.75ZM2412.75 200.816L2417.49 196.349L2419.94 198.951L2415.2 203.418L2412.75 200.816ZM2417.49 196.349L2422.24 191.882L2424.69 194.485L2419.94 198.951L2417.49 196.349ZM2421.68 193.184V135.115H2425.25V193.184H2421.68ZM2421.68 135.115V106.081H2425.25V135.115H2421.68ZM2421.68 106.081V91.5639H2425.25V106.081H2421.68ZM2421.68 91.5639V84.3053H2425.25V91.5639H2421.68ZM2421.68 84.3053V80.676H2425.25V84.3053H2421.68ZM2422.23 79.3782L2454.4 48.9481L2456.85 51.5438L2424.69 81.9739L2422.23 79.3782Z" fill="#005E5E"/>
<path d="M2482.96 0.72377C2483.67 0.0339508 2484.8 0.0467377 2485.49 0.75235C2486.18 1.45795 2486.17 2.58917 2485.46 3.27899L2482.96 0.72377ZM2404.48 196.754L2405.74 198.017L2405.22 198.541H2404.48V196.754ZM2412.74 188.49H2414.53V189.23L2414.01 189.754L2412.74 188.49ZM2412.74 71.8719H2410.96V71.12L2411.49 70.5943L2412.74 71.8719ZM2109 194.967L2259.08 194.967V198.541L2109 198.541V194.967ZM2259.08 194.967H2334.13V198.541H2259.08V194.967ZM2334.13 194.967H2371.65V198.541H2334.13V194.967ZM2371.65 194.967H2390.41V198.541H2371.65V194.967ZM2390.41 194.967H2399.79V198.541H2390.41V194.967ZM2399.79 194.967H2404.48V198.541H2399.79V194.967ZM2403.22 195.491L2411.48 187.227L2414.01 189.754L2405.74 198.017L2403.22 195.491ZM2410.96 188.49V128.3H2414.53V188.49H2410.96ZM2410.96 128.3V98.2051H2414.53V128.3H2410.96ZM2410.96 98.2051V83.1576H2414.53V98.2051H2410.96ZM2410.96 83.1576V75.6338H2414.53V83.1576H2410.96ZM2410.96 75.6338V71.8719H2414.53V75.6338H2410.96ZM2411.49 70.5943L2482.96 0.72377L2485.46 3.27899L2413.99 73.1495L2411.49 70.5943Z" fill="#005E5E"/>
<path d="M2112 255.733H2110.21V252.16H2112V255.733ZM2514.59 299.061C2515.57 299.061 2516.37 299.861 2516.37 300.848C2516.37 301.834 2515.57 302.634 2514.59 302.634V299.061ZM2271.59 253.946V252.16H2272.33L2272.85 252.683L2271.59 253.946ZM2296.61 278.96L2295.34 280.224V280.224L2296.61 278.96ZM2309.11 291.467L2310.38 290.204L2309.11 291.467ZM2315.37 297.721L2316.63 296.457V296.457L2315.37 297.721ZM2318.49 300.848V302.634H2317.75L2317.23 302.111L2318.49 300.848ZM2112 252.16H2189.4V255.733H2112V252.16ZM2189.4 252.16H2229.6V255.733H2189.4V252.16ZM2229.6 252.16H2249.7V255.733H2229.6V252.16ZM2249.7 252.16L2259.75 252.16V255.733L2249.7 255.733V252.16ZM2259.75 252.16H2264.78V255.733H2259.75V252.16ZM2264.78 252.16H2271.59V255.733H2264.78V252.16ZM2272.85 252.683L2297.87 277.697L2295.34 280.224L2270.33 255.21L2272.85 252.683ZM2297.87 277.697L2310.38 290.204L2307.85 292.731L2295.34 280.224L2297.87 277.697ZM2310.38 290.204L2316.63 296.457L2314.1 298.984L2307.85 292.731L2310.38 290.204ZM2316.63 296.457L2319.76 299.584L2317.23 302.111L2314.1 298.984L2316.63 296.457ZM2318.49 299.061L2514.59 299.061V302.634L2318.49 302.634V299.061Z" fill="#005E5E"/>
<path d="M2586.84 391.069C2587.83 391.069 2588.63 391.869 2588.63 392.855C2588.63 393.842 2587.83 394.642 2586.84 394.642V391.069ZM2267.02 268.232V266.445H2267.76L2268.28 266.968L2267.02 268.232ZM2331.34 332.554L2330.08 333.817L2331.34 332.554ZM2363.5 364.715L2364.76 363.451V363.451L2363.5 364.715ZM2379.58 380.795L2378.32 382.059V382.059L2379.58 380.795ZM2387.62 388.835L2388.89 387.572V387.572L2387.62 388.835ZM2391.64 392.855V394.642H2390.9L2390.38 394.119L2391.64 392.855ZM2111 266.445H2188.4V270.018H2111V266.445ZM2188.4 266.445H2228.6V270.018H2188.4V266.445ZM2228.6 266.445H2248.7V270.018H2228.6V266.445ZM2248.7 266.445H2258.75V270.018H2248.7V266.445ZM2258.75 266.445H2267.02V270.018H2258.75V266.445ZM2268.28 266.968L2332.6 331.29L2330.08 333.817L2265.75 269.495L2268.28 266.968ZM2332.6 331.29L2364.76 363.451L2362.24 365.978L2330.08 333.817L2332.6 331.29ZM2364.76 363.451L2380.84 379.532L2378.32 382.059L2362.24 365.978L2364.76 363.451ZM2380.84 379.532L2388.89 387.572L2386.36 390.099L2378.32 382.059L2380.84 379.532ZM2388.89 387.572L2392.91 391.592L2390.38 394.119L2386.36 390.099L2388.89 387.572ZM2391.64 391.069H2586.84V394.642H2391.64V391.069Z" fill="#005E5E"/>
<path d="M2591.69 609.303C2592.38 610.005 2592.37 611.137 2591.67 611.83C2590.97 612.523 2589.84 612.516 2589.14 611.814L2591.69 609.303ZM2138.37 280.014L2138.37 278.227L2139.09 278.227L2139.61 278.72L2138.37 280.014ZM2157.13 297.881L2155.9 299.175L2157.13 297.881ZM2166.51 306.815L2165.28 308.109L2165.28 308.109L2166.51 306.815ZM2171.21 311.282L2172.44 309.988L2172.99 310.516L2172.99 311.282L2171.21 311.282ZM2171.21 439.033L2169.96 440.315L2169.42 439.789L2169.42 439.033L2171.21 439.033ZM2189.63 456.9L2190.87 455.617L2189.63 456.9ZM2198.84 465.833L2197.6 467.116L2198.84 465.833ZM2203.45 470.3L2202.21 471.583L2202.21 471.583L2203.45 470.3ZM2205.75 472.534L2205.75 474.32L2205.03 474.32L2204.51 473.816L2205.75 472.534ZM2338.23 472.534L2338.23 470.747L2338.23 472.534ZM2404.47 472.534L2404.47 474.32L2404.47 474.32L2404.47 472.534ZM2437.59 472.534L2437.59 470.747L2437.59 470.747L2437.59 472.534ZM2454.14 472.534L2454.14 470.747L2454.89 470.747L2455.42 471.278L2454.14 472.534ZM2111.5 278.227L2124.08 278.227L2124.08 281.801L2111.5 281.801L2111.5 278.227ZM2124.08 278.227L2132.12 278.227L2132.12 281.801L2124.08 281.801L2124.08 278.227ZM2132.12 278.227L2138.37 278.227L2138.37 281.801L2132.12 281.801L2132.12 278.227ZM2139.61 278.72L2158.37 296.588L2155.9 299.175L2137.14 281.308L2139.61 278.72ZM2158.37 296.588L2167.75 305.521L2165.28 308.109L2155.9 299.175L2158.37 296.588ZM2167.75 305.521L2172.44 309.988L2169.97 312.576L2165.28 308.109L2167.75 305.521ZM2172.99 311.282L2172.99 376.048L2169.42 376.048L2169.42 311.282L2172.99 311.282ZM2172.99 376.048L2172.99 408.431L2169.42 408.431L2169.42 376.048L2172.99 376.048ZM2172.99 408.431L2172.99 424.622L2169.42 424.622L2169.42 408.431L2172.99 408.431ZM2172.99 424.622L2172.99 432.718L2169.42 432.718L2169.42 424.622L2172.99 424.622ZM2172.99 432.718L2172.99 439.033L2169.42 439.033L2169.42 432.718L2172.99 432.718ZM2172.45 437.75L2190.87 455.617L2188.39 458.182L2169.96 440.315L2172.45 437.75ZM2190.87 455.617L2200.09 464.551L2197.6 467.116L2188.39 458.182L2190.87 455.617ZM2200.09 464.551L2204.69 469.017L2202.21 471.583L2197.6 467.116L2200.09 464.551ZM2204.69 469.017L2207 471.251L2204.51 473.816L2202.21 471.583L2204.69 469.017ZM2205.75 470.747L2338.23 470.747L2338.23 474.32L2205.75 474.32L2205.75 470.747ZM2338.23 470.747L2404.47 470.747L2404.47 474.32L2338.23 474.32L2338.23 470.747ZM2404.47 470.747L2437.59 470.747L2437.59 474.32L2404.47 474.32L2404.47 470.747ZM2437.59 470.747L2454.14 470.747L2454.14 474.32L2437.59 474.32L2437.59 470.747ZM2455.42 471.278L2591.69 609.303L2589.14 611.814L2452.87 473.789L2455.42 471.278Z" fill="#005E5E"/>
<path d="M2045 322.008L2045 373.644L2045 393.298L2045 403.125L2045 408.038L2078.95 408.038L2095.92 408.038L2104.41 408.038L2108.65 408.038L2151.87 453.376L2173.48 476.045L2184.28 487.38L2189.68 493.047L2245.09 493.047L2258.95 493.047L2265.87 493.047L2269.33 493.047L2272.8 493.047M2272.8 493.047L2281 489.508L2286.5 493.047L2281 497.512L2272.8 493.047Z" stroke="#005E5E" stroke-width="3.57344"/>
<path d="M2237.24 643.978C2237.93 644.682 2237.92 645.813 2237.22 646.505C2236.52 647.197 2235.39 647.187 2234.69 646.483L2237.24 643.978ZM2032.25 427.814L2032.25 429.601L2030.47 429.601L2030.47 427.814L2032.25 427.814ZM2093.23 427.814L2093.23 426.027L2093.23 426.027L2093.23 427.814ZM2097.58 427.814L2097.58 429.601L2097.58 429.601L2097.58 427.814ZM2099.76 427.814L2099.76 426.027L2100.49 426.027L2101.02 426.543L2099.76 427.814ZM2142.83 470.416L2141.58 471.686L2142.83 470.416ZM2164.37 491.717L2165.63 490.447L2164.37 491.717ZM2175.14 502.367L2176.4 501.097L2175.14 502.367ZM2180.53 507.693L2179.27 508.963L2180.53 507.693ZM2183.22 510.355L2184.47 509.085L2185 509.609L2185 510.355L2183.22 510.355ZM2183.23 553.672L2185.02 553.672L2183.23 553.672ZM2183.24 575.331L2181.45 575.331L2183.24 575.331ZM2183.24 586.16L2185.03 586.159L2183.24 586.16ZM2183.25 591.574L2181.97 592.827L2181.46 592.306L2181.46 591.575L2183.25 591.574ZM2030.47 382.587L2030.47 322.012L2034.04 322.012L2034.04 382.587L2030.47 382.587ZM2030.47 406.708L2030.47 382.587L2034.04 382.587L2034.04 406.708L2030.47 406.708ZM2030.47 418.769L2030.47 406.708L2034.04 406.708L2034.04 418.769L2030.47 418.769ZM2030.47 424.799L2030.47 418.769L2034.04 418.769L2034.04 424.799L2030.47 424.799ZM2030.47 427.814L2030.47 424.799L2034.04 424.799L2034.04 427.814L2030.47 427.814ZM2067.1 429.601L2032.25 429.601L2032.25 426.027L2067.1 426.027L2067.1 429.601ZM2084.52 429.601L2067.1 429.601L2067.1 426.027L2084.52 426.027L2084.52 429.601ZM2093.23 429.601L2084.52 429.601L2084.52 426.027L2093.23 426.027L2093.23 429.601ZM2097.58 429.601L2093.23 429.601L2093.23 426.027L2097.58 426.027L2097.58 429.601ZM2099.76 429.601L2097.58 429.601L2097.58 426.027L2099.76 426.027L2099.76 429.601ZM2141.58 471.686L2098.5 429.084L2101.02 426.543L2144.09 469.146L2141.58 471.686ZM2163.12 492.987L2141.58 471.686L2144.09 469.146L2165.63 490.447L2163.12 492.987ZM2173.88 503.638L2163.12 492.987L2165.63 490.447L2176.4 501.097L2173.88 503.638ZM2179.27 508.963L2173.88 503.638L2176.4 501.097L2181.78 506.422L2179.27 508.963ZM2181.96 511.626L2179.27 508.963L2181.78 506.422L2184.47 509.085L2181.96 511.626ZM2181.45 553.673L2181.43 510.356L2185 510.355L2185.02 553.672L2181.45 553.673ZM2181.45 575.331L2181.45 553.673L2185.02 553.672L2185.03 575.33L2181.45 575.331ZM2181.46 586.16L2181.45 575.331L2185.03 575.33L2185.03 586.159L2181.46 586.16ZM2234.69 646.483L2181.97 592.827L2184.52 590.322L2237.24 643.978L2234.69 646.483ZM2181.46 591.575L2181.46 586.16L2185.03 586.159L2185.03 591.574L2181.46 591.575Z" fill="#005E5E"/>
<path d="M2109.11 589.848C2109.11 590.834 2108.31 591.634 2107.32 591.634C2106.34 591.634 2105.54 590.834 2105.54 589.848L2109.11 589.848ZM2020 432.616L2018.75 433.893L2018.21 433.367L2018.21 432.616L2020 432.616ZM2063.77 475.498L2062.52 476.774L2062.52 476.774L2063.77 475.498ZM2085.66 496.938L2086.91 495.662L2086.92 495.668L2085.66 496.938ZM2107.32 518.379L2108.58 517.109L2109.11 517.633L2109.11 518.379L2107.32 518.379ZM2018.21 386.162L2018.21 322.012L2021.78 322.012L2021.78 386.162L2018.21 386.162ZM2018.21 412.069L2018.21 386.162L2021.78 386.162L2021.78 412.069L2018.21 412.069ZM2018.21 432.616L2018.21 412.069L2021.78 412.069L2021.78 432.616L2018.21 432.616ZM2062.52 476.774L2018.75 433.893L2021.25 431.34L2065.02 474.221L2062.52 476.774ZM2084.41 498.215L2062.52 476.774L2065.02 474.221L2086.91 495.662L2084.41 498.215ZM2105.54 589.848L2105.54 518.379L2109.11 518.379L2109.11 589.848L2105.54 589.848ZM2106.07 519.649L2084.4 498.208L2086.92 495.668L2108.58 517.109L2106.07 519.649Z" fill="#005E5E"/>
<rect x="2042" y="318.012" width="7" height="7" fill="#00353B" stroke="#005E5E" stroke-width="4"/>
<rect x="2107" y="277.012" width="7" height="7" fill="#00353B" stroke="#005E5E" stroke-width="4"/>
<rect x="696.5" y="114.508" width="1414" height="207" stroke="#005E5E" stroke-width="3"/>
<rect x="691" y="110.008" width="11" height="11" fill="#D9D9D9"/>
<rect x="691" y="315.008" width="11" height="11" fill="#D9D9D9"/>
<rect x="2104" y="110.008" width="11" height="11" fill="#D9D9D9"/>
<rect x="2104" y="315.008" width="11" height="11" fill="#D9D9D9"/>
</svg>
