<svg width="1167" height="143" viewBox="0 0 1167 143" fill="none" xmlns="http://www.w3.org/2000/svg">
<path d="M1078 49.2133H1076.21V52.7867H1078V49.2133ZM1165 52.7867C1165.99 52.7867 1166.79 51.9868 1166.79 51C1166.79 50.0132 1165.99 49.2133 1165 49.2133V52.7867ZM1078 52.7867H1165V49.2133H1078V52.7867Z" fill="#005E5E"/>
<path d="M557 44.7867H555.213V41.2133H557V44.7867ZM1138.5 62.2133C1139.49 62.2133 1140.29 63.0132 1140.29 64C1140.29 64.9868 1139.49 65.7867 1138.5 65.7867V62.2133ZM860 43V41.2133H861.153L861.628 42.2636L860 43ZM869.5 64V65.7867H868.347L867.872 64.7364L869.5 64ZM861.628 42.2636L871.128 63.2636L867.872 64.7364L858.372 43.7364L861.628 42.2636ZM869.5 62.2133L1138.5 62.2133V65.7867L869.5 65.7867V62.2133ZM557 41.2133L860 41.2133V44.7867L557 44.7867V41.2133Z" fill="#005E5E"/>
<rect x="1053" y="59" width="11" height="11" fill="#D9D9D9"/>
<rect x="552" y="38" width="11" height="11" fill="#D9D9D9"/>
<path d="M586.396 30H585.034L583.472 28.5107H581.445V27.5195H584.214C584.354 27.5195 584.486 27.4919 584.609 27.4365C584.733 27.3812 584.84 27.3079 584.932 27.2168C585.023 27.1224 585.094 27.0133 585.146 26.8896C585.199 26.766 585.225 26.6357 585.225 26.499C585.225 26.359 585.199 26.2288 585.146 26.1084C585.094 25.9847 585.023 25.8773 584.932 25.7861C584.84 25.695 584.733 25.6234 584.609 25.5713C584.486 25.516 584.354 25.4883 584.214 25.4883H580.923V30H579.922V24.502H584.214C584.491 24.502 584.751 24.5557 584.995 24.6631C585.239 24.7673 585.451 24.9105 585.63 25.0928C585.812 25.2718 585.955 25.4834 586.06 25.7275C586.164 25.9684 586.216 26.2256 586.216 26.499C586.216 26.7236 586.18 26.9401 586.108 27.1484C586.037 27.3535 585.936 27.5423 585.806 27.7148C585.679 27.8841 585.527 28.0306 585.352 28.1543C585.176 28.278 584.984 28.3691 584.775 28.4277L586.396 30ZM593.145 30H587.402V24.4824H593.145V25.4883H588.413V28.9893H593.145V30ZM592.505 27.7197H588.887V26.709H592.505V27.7197ZM600.781 27.2314C600.781 27.6188 600.719 27.9818 600.596 28.3203C600.472 28.6556 600.298 28.9486 600.073 29.1992C599.849 29.4466 599.577 29.6419 599.258 29.7852C598.942 29.9284 598.592 30 598.208 30H595.752V28.9893H598.208C598.452 28.9893 598.67 28.9437 598.862 28.8525C599.054 28.7614 599.217 28.6377 599.351 28.4814C599.487 28.3219 599.591 28.1364 599.663 27.9248C599.735 27.71 599.771 27.4788 599.771 27.2314C599.771 26.9873 599.735 26.7594 599.663 26.5479C599.591 26.3363 599.487 26.1523 599.351 25.9961C599.217 25.8398 599.054 25.7161 598.862 25.625C598.67 25.5339 598.452 25.4883 598.208 25.4883H595.278V30H594.258V24.4824H598.208C598.592 24.4824 598.942 24.554 599.258 24.6973C599.577 24.8405 599.849 25.0358 600.073 25.2832C600.298 25.5306 600.472 25.8219 600.596 26.1572C600.719 26.4893 600.781 26.8473 600.781 27.2314ZM608.56 30H607.559V25.4883H604.912V24.502H611.201V25.4883H608.56V30ZM617.773 30H612.031V24.4824H617.773V25.4883H613.042V28.9893H617.773V30ZM617.134 27.7197H613.516V26.709H617.134V27.7197ZM625.181 30H624.18V28.4912H620.327V27.4707H624.18V25.4883H621.577C621.333 25.4883 621.104 25.5355 620.889 25.6299C620.674 25.721 620.487 25.8464 620.327 26.0059C620.168 26.1654 620.041 26.3525 619.946 26.5674C619.855 26.779 619.81 27.0068 619.81 27.251V30H618.799V27.251C618.799 26.8669 618.872 26.5072 619.019 26.1719C619.165 25.8366 619.364 25.5436 619.614 25.293C619.865 25.0423 620.16 24.8454 620.498 24.7021C620.837 24.5557 621.196 24.4824 621.577 24.4824H625.181V30ZM630.654 30H629.653V27.2314C629.653 26.9906 629.608 26.7643 629.517 26.5527C629.425 26.3411 629.3 26.1572 629.141 26.001C628.984 25.8415 628.799 25.7161 628.584 25.625C628.372 25.5339 628.146 25.4883 627.905 25.4883H627.622V30H626.621V24.502H627.905C628.14 24.502 628.366 24.5312 628.584 24.5898C628.802 24.6452 629.007 24.7249 629.199 24.8291C629.395 24.93 629.574 25.0537 629.736 25.2002C629.902 25.3467 630.047 25.5094 630.171 25.6885C630.298 25.5094 630.441 25.3467 630.601 25.2002C630.763 25.0537 630.939 24.93 631.128 24.8291C631.317 24.7249 631.517 24.6452 631.729 24.5898C631.94 24.5312 632.161 24.502 632.393 24.502H633.672V30H632.671V25.4883H632.393C632.152 25.4883 631.925 25.5371 631.714 25.6348C631.506 25.7324 631.322 25.8659 631.162 26.0352C631.006 26.2044 630.882 26.403 630.791 26.6309C630.7 26.8587 630.654 27.1012 630.654 27.3584V30ZM645.161 30H644.16V28.4912H640.308V27.4707H644.16V25.4883H641.558C641.313 25.4883 641.084 25.5355 640.869 25.6299C640.654 25.721 640.467 25.8464 640.308 26.0059C640.148 26.1654 640.021 26.3525 639.927 26.5674C639.836 26.779 639.79 27.0068 639.79 27.251V30H638.779V27.251C638.779 26.8669 638.853 26.5072 638.999 26.1719C639.146 25.8366 639.344 25.5436 639.595 25.293C639.845 25.0423 640.14 24.8454 640.479 24.7021C640.817 24.5557 641.177 24.4824 641.558 24.4824H645.161V30ZM651.655 30C651.655 29.6354 651.593 29.2822 651.47 28.9404C651.349 28.5954 651.185 28.2715 650.977 27.9688C650.771 27.6628 650.532 27.3779 650.259 27.1143C649.989 26.8506 649.704 26.6162 649.404 26.4111C649.105 26.2028 648.799 26.0286 648.486 25.8887C648.177 25.7454 647.882 25.6396 647.603 25.5713V30H646.602V24.502H647.144V24.5117C647.502 24.5312 647.882 24.611 648.286 24.751C648.693 24.8877 649.097 25.0749 649.497 25.3125C649.901 25.5469 650.288 25.8268 650.659 26.1523C651.034 26.4746 651.366 26.8311 651.655 27.2217V24.502H652.651V30H651.655ZM660.615 27.2314C660.615 27.6188 660.553 27.9818 660.43 28.3203C660.306 28.6556 660.132 28.9486 659.907 29.1992C659.683 29.4466 659.411 29.6419 659.092 29.7852C658.776 29.9284 658.426 30 658.042 30H655.586V28.9893H658.042C658.286 28.9893 658.504 28.9437 658.696 28.8525C658.888 28.7614 659.051 28.6377 659.185 28.4814C659.321 28.3219 659.425 28.1364 659.497 27.9248C659.569 27.71 659.604 27.4788 659.604 27.2314C659.604 26.9873 659.569 26.7594 659.497 26.5479C659.425 26.3363 659.321 26.1523 659.185 25.9961C659.051 25.8398 658.888 25.7161 658.696 25.625C658.504 25.5339 658.286 25.4883 658.042 25.4883H655.112V30H654.092V24.4824H658.042C658.426 24.4824 658.776 24.554 659.092 24.6973C659.411 24.8405 659.683 25.0358 659.907 25.2832C660.132 25.5306 660.306 25.8219 660.43 26.1572C660.553 26.4893 660.615 26.8473 660.615 27.2314ZM671.992 28.3594C671.992 28.5872 671.948 28.8005 671.86 28.999C671.776 29.1976 671.659 29.3717 671.509 29.5215C671.359 29.668 671.183 29.7852 670.981 29.873C670.783 29.9577 670.57 30 670.342 30H666.973V28.9893H670.342C670.433 28.9893 670.518 28.973 670.596 28.9404C670.674 28.9079 670.741 28.8639 670.796 28.8086C670.854 28.75 670.9 28.6833 670.933 28.6084C670.965 28.5303 670.981 28.4473 670.981 28.3594C670.981 28.2682 670.965 28.1836 670.933 28.1055C670.9 28.0273 670.854 27.9606 670.796 27.9053C670.741 27.8467 670.674 27.8011 670.596 27.7686C670.518 27.736 670.433 27.7197 670.342 27.7197H666.973V26.709H669.521C669.619 26.7057 669.71 26.6878 669.795 26.6553C669.88 26.6227 669.953 26.5804 670.015 26.5283C670.08 26.473 670.13 26.4095 670.166 26.3379C670.202 26.263 670.22 26.1833 670.22 26.0986C670.22 26.0107 670.203 25.931 670.171 25.8594C670.138 25.7845 670.093 25.7194 670.034 25.6641C669.979 25.6087 669.912 25.5664 669.834 25.5371C669.759 25.5046 669.678 25.4883 669.59 25.4883H666.499V30H665.479V24.4824H669.59C669.814 24.4824 670.026 24.5247 670.225 24.6094C670.426 24.694 670.601 24.8096 670.747 24.9561C670.897 25.0993 671.014 25.2702 671.099 25.4688C671.187 25.6641 671.23 25.874 671.23 26.0986C671.23 26.2419 671.211 26.377 671.172 26.5039C671.136 26.6309 671.086 26.7497 671.021 26.8604C671.164 26.9255 671.294 27.0101 671.411 27.1143C671.532 27.2152 671.634 27.3307 671.719 27.4609C671.807 27.5911 671.873 27.7327 671.919 27.8857C671.968 28.0355 671.992 28.1934 671.992 28.3594ZM678.291 30H673.027V24.502H674.028V28.999H678.291V30ZM684.966 24.502V27.251C684.966 27.6318 684.894 27.9899 684.751 28.3252C684.608 28.6572 684.411 28.9486 684.16 29.1992C683.913 29.4466 683.623 29.6419 683.291 29.7852C682.959 29.9284 682.604 30 682.227 30H681.675C681.297 30 680.942 29.9284 680.61 29.7852C680.278 29.6387 679.987 29.4417 679.736 29.1943C679.489 28.9437 679.294 28.6523 679.15 28.3203C679.007 27.985 678.936 27.6286 678.936 27.251V24.502H679.937V27.251C679.937 27.4919 679.982 27.7197 680.073 27.9346C680.164 28.1462 680.288 28.3317 680.444 28.4912C680.604 28.6475 680.788 28.7712 680.996 28.8623C681.208 28.9535 681.434 28.999 681.675 28.999H682.227C682.467 28.999 682.694 28.9535 682.905 28.8623C683.117 28.7712 683.301 28.6475 683.457 28.4912C683.613 28.3317 683.737 28.1462 683.828 27.9346C683.919 27.7197 683.965 27.4919 683.965 27.251V24.502H684.966ZM692.061 30H686.318V24.4824H692.061V25.4883H687.329V28.9893H692.061V30ZM691.421 27.7197H687.803V26.709H691.421V27.7197ZM699.839 30H698.838V25.4883H696.191V24.502H702.48V25.4883H699.839V30ZM709.053 30H703.311V24.4824H709.053V25.4883H704.321V28.9893H709.053V30ZM708.413 27.7197H704.795V26.709H708.413V27.7197ZM716.46 30H715.459V28.4912H711.606V27.4707H715.459V25.4883H712.856C712.612 25.4883 712.383 25.5355 712.168 25.6299C711.953 25.721 711.766 25.8464 711.606 26.0059C711.447 26.1654 711.32 26.3525 711.226 26.5674C711.134 26.779 711.089 27.0068 711.089 27.251V30H710.078V27.251C710.078 26.8669 710.151 26.5072 710.298 26.1719C710.444 25.8366 710.643 25.5436 710.894 25.293C711.144 25.0423 711.439 24.8454 711.777 24.7021C712.116 24.5557 712.476 24.4824 712.856 24.4824H716.46V30ZM721.934 30H720.933V27.2314C720.933 26.9906 720.887 26.7643 720.796 26.5527C720.705 26.3411 720.579 26.1572 720.42 26.001C720.264 25.8415 720.078 25.7161 719.863 25.625C719.652 25.5339 719.425 25.4883 719.185 25.4883H718.901V30H717.9V24.502H719.185C719.419 24.502 719.645 24.5312 719.863 24.5898C720.081 24.6452 720.286 24.7249 720.479 24.8291C720.674 24.93 720.853 25.0537 721.016 25.2002C721.182 25.3467 721.326 25.5094 721.45 25.6885C721.577 25.5094 721.72 25.3467 721.88 25.2002C722.043 25.0537 722.218 24.93 722.407 24.8291C722.596 24.7249 722.796 24.6452 723.008 24.5898C723.219 24.5312 723.441 24.502 723.672 24.502H724.951V30H723.95V25.4883H723.672C723.431 25.4883 723.205 25.5371 722.993 25.6348C722.785 25.7324 722.601 25.8659 722.441 26.0352C722.285 26.2044 722.161 26.403 722.07 26.6309C721.979 26.8587 721.934 27.1012 721.934 27.3584V30ZM727.729 29.248C727.729 29.3522 727.708 29.4499 727.666 29.541C727.627 29.6322 727.573 29.7119 727.505 29.7803C727.437 29.8486 727.357 29.9023 727.266 29.9414C727.174 29.9805 727.078 30 726.978 30C726.873 30 726.776 29.9805 726.685 29.9414C726.597 29.9023 726.519 29.8486 726.45 29.7803C726.382 29.7119 726.328 29.6322 726.289 29.541C726.25 29.4499 726.23 29.3522 726.23 29.248C726.23 29.1471 726.25 29.0511 726.289 28.96C726.328 28.8688 726.382 28.7891 726.45 28.7207C726.519 28.6523 726.597 28.5986 726.685 28.5596C726.776 28.5205 726.873 28.501 726.978 28.501C727.078 28.501 727.174 28.5205 727.266 28.5596C727.357 28.5986 727.437 28.6523 727.505 28.7207C727.573 28.7891 727.627 28.8688 727.666 28.96C727.708 29.0511 727.729 29.1471 727.729 29.248ZM738.77 24.502L735.962 30H734.819L731.992 24.502H733.13L735.391 28.8916L737.642 24.502H738.77ZM740.61 30H739.619V24.502H740.61V30ZM748.525 30H747.163L745.601 28.5107H743.574V27.5195H746.343C746.483 27.5195 746.615 27.4919 746.738 27.4365C746.862 27.3812 746.969 27.3079 747.061 27.2168C747.152 27.1224 747.223 27.0133 747.275 26.8896C747.327 26.766 747.354 26.6357 747.354 26.499C747.354 26.359 747.327 26.2288 747.275 26.1084C747.223 25.9847 747.152 25.8773 747.061 25.7861C746.969 25.695 746.862 25.6234 746.738 25.5713C746.615 25.516 746.483 25.4883 746.343 25.4883H743.052V30H742.051V24.502H746.343C746.619 24.502 746.88 24.5557 747.124 24.6631C747.368 24.7673 747.58 24.9105 747.759 25.0928C747.941 25.2718 748.084 25.4834 748.188 25.7275C748.293 25.9684 748.345 26.2256 748.345 26.499C748.345 26.7236 748.309 26.9401 748.237 27.1484C748.166 27.3535 748.065 27.5423 747.935 27.7148C747.808 27.8841 747.656 28.0306 747.48 28.1543C747.305 28.278 747.113 28.3691 746.904 28.4277L748.525 30ZM752.544 30H751.543V25.4883H748.896V24.502H755.186V25.4883H752.544V30ZM761.958 24.502V27.251C761.958 27.6318 761.886 27.9899 761.743 28.3252C761.6 28.6572 761.403 28.9486 761.152 29.1992C760.905 29.4466 760.615 29.6419 760.283 29.7852C759.951 29.9284 759.596 30 759.219 30H758.667C758.289 30 757.935 29.9284 757.603 29.7852C757.271 29.6387 756.979 29.4417 756.729 29.1943C756.481 28.9437 756.286 28.6523 756.143 28.3203C755.999 27.985 755.928 27.6286 755.928 27.251V24.502H756.929V27.251C756.929 27.4919 756.974 27.7197 757.065 27.9346C757.157 28.1462 757.28 28.3317 757.437 28.4912C757.596 28.6475 757.78 28.7712 757.988 28.8623C758.2 28.9535 758.426 28.999 758.667 28.999H759.219C759.46 28.999 759.686 28.9535 759.897 28.8623C760.109 28.7712 760.293 28.6475 760.449 28.4912C760.605 28.3317 760.729 28.1462 760.82 27.9346C760.911 27.7197 760.957 27.4919 760.957 27.251V24.502H761.958ZM769.604 30H768.604V28.4912H764.751V27.4707H768.604V25.4883H766.001C765.757 25.4883 765.527 25.5355 765.312 25.6299C765.098 25.721 764.91 25.8464 764.751 26.0059C764.591 26.1654 764.465 26.3525 764.37 26.5674C764.279 26.779 764.233 27.0068 764.233 27.251V30H763.223V27.251C763.223 26.8669 763.296 26.5072 763.442 26.1719C763.589 25.8366 763.787 25.5436 764.038 25.293C764.289 25.0423 764.583 24.8454 764.922 24.7021C765.26 24.5557 765.62 24.4824 766.001 24.4824H769.604V30ZM776.309 30H771.045V24.502H772.046V28.999H776.309V30ZM786.523 30H780.781V24.4824H786.523V25.4883H781.792V28.9893H786.523V30ZM785.884 27.7197H782.266V26.709H785.884V27.7197ZM792.69 30C792.69 29.6354 792.629 29.2822 792.505 28.9404C792.384 28.5954 792.22 28.2715 792.012 27.9688C791.807 27.6628 791.567 27.3779 791.294 27.1143C791.024 26.8506 790.739 26.6162 790.439 26.4111C790.14 26.2028 789.834 26.0286 789.521 25.8887C789.212 25.7454 788.918 25.6396 788.638 25.5713V30H787.637V24.502H788.179V24.5117C788.537 24.5312 788.918 24.611 789.321 24.751C789.728 24.8877 790.132 25.0749 790.532 25.3125C790.936 25.5469 791.323 25.8268 791.694 26.1523C792.069 26.4746 792.401 26.8311 792.69 27.2217V24.502H793.687V30H792.69ZM801.318 24.502L798.511 30H797.368L794.541 24.502H795.679L797.939 28.8916L800.19 24.502H801.318ZM803.159 30H802.168V24.502H803.159V30ZM811.074 30H809.712L808.149 28.5107H806.123V27.5195H808.892C809.032 27.5195 809.163 27.4919 809.287 27.4365C809.411 27.3812 809.518 27.3079 809.609 27.2168C809.701 27.1224 809.772 27.0133 809.824 26.8896C809.876 26.766 809.902 26.6357 809.902 26.499C809.902 26.359 809.876 26.2288 809.824 26.1084C809.772 25.9847 809.701 25.8773 809.609 25.7861C809.518 25.695 809.411 25.6234 809.287 25.5713C809.163 25.516 809.032 25.4883 808.892 25.4883H805.601V30H804.6V24.502H808.892C809.168 24.502 809.429 24.5557 809.673 24.6631C809.917 24.7673 810.129 24.9105 810.308 25.0928C810.49 25.2718 810.633 25.4834 810.737 25.7275C810.841 25.9684 810.894 26.2256 810.894 26.499C810.894 26.7236 810.858 26.9401 810.786 27.1484C810.715 27.3535 810.614 27.5423 810.483 27.7148C810.356 27.8841 810.205 28.0306 810.029 28.1543C809.854 28.278 809.661 28.3691 809.453 28.4277L811.074 30ZM818.564 27.2412C818.564 27.6221 818.504 27.9801 818.384 28.3154C818.263 28.6475 818.091 28.9388 817.866 29.1895C817.645 29.4401 817.378 29.6387 817.065 29.7852C816.756 29.9284 816.411 30 816.03 30H814.292C813.911 30 813.564 29.9284 813.252 29.7852C812.939 29.6387 812.671 29.4401 812.446 29.1895C812.225 28.9388 812.054 28.6475 811.934 28.3154C811.813 27.9801 811.753 27.6221 811.753 27.2412C811.753 26.8636 811.813 26.5088 811.934 26.1768C812.054 25.8447 812.225 25.555 812.446 25.3076C812.671 25.057 812.939 24.86 813.252 24.7168C813.564 24.5736 813.911 24.502 814.292 24.502H816.03C816.411 24.502 816.756 24.5736 817.065 24.7168C817.378 24.86 817.645 25.057 817.866 25.3076C818.091 25.555 818.263 25.8447 818.384 26.1768C818.504 26.5088 818.564 26.8636 818.564 27.2412ZM817.563 27.2412C817.563 27.0003 817.528 26.7741 817.456 26.5625C817.388 26.3477 817.287 26.1621 817.153 26.0059C817.023 25.8464 816.864 25.721 816.675 25.6299C816.486 25.5355 816.271 25.4883 816.03 25.4883H814.292C814.051 25.4883 813.835 25.5355 813.643 25.6299C813.454 25.721 813.293 25.8464 813.159 26.0059C813.029 26.1621 812.928 26.3477 812.856 26.5625C812.788 26.7741 812.754 27.0003 812.754 27.2412C812.754 27.4821 812.788 27.71 812.856 27.9248C812.928 28.1364 813.029 28.3219 813.159 28.4814C813.293 28.641 813.454 28.7679 813.643 28.8623C813.835 28.9535 814.051 28.999 814.292 28.999H816.03C816.271 28.999 816.486 28.9535 816.675 28.8623C816.864 28.7679 817.023 28.641 817.153 28.4814C817.287 28.3219 817.388 28.1364 817.456 27.9248C817.528 27.71 817.563 27.4821 817.563 27.2412ZM824.722 30C824.722 29.6354 824.66 29.2822 824.536 28.9404C824.416 28.5954 824.251 28.2715 824.043 27.9688C823.838 27.6628 823.599 27.3779 823.325 27.1143C823.055 26.8506 822.77 26.6162 822.471 26.4111C822.171 26.2028 821.865 26.0286 821.553 25.8887C821.243 25.7454 820.949 25.6396 820.669 25.5713V30H819.668V24.502H820.21V24.5117C820.568 24.5312 820.949 24.611 821.353 24.751C821.759 24.8877 822.163 25.0749 822.563 25.3125C822.967 25.5469 823.354 25.8268 823.726 26.1523C824.1 26.4746 824.432 26.8311 824.722 27.2217V24.502H825.718V30H824.722ZM831.191 30H830.19V27.2314C830.19 26.9906 830.145 26.7643 830.054 26.5527C829.963 26.3411 829.837 26.1572 829.678 26.001C829.521 25.8415 829.336 25.7161 829.121 25.625C828.91 25.5339 828.683 25.4883 828.442 25.4883H828.159V30H827.158V24.502H828.442C828.677 24.502 828.903 24.5312 829.121 24.5898C829.339 24.6452 829.544 24.7249 829.736 24.8291C829.932 24.93 830.111 25.0537 830.273 25.2002C830.439 25.3467 830.584 25.5094 830.708 25.6885C830.835 25.5094 830.978 25.3467 831.138 25.2002C831.3 25.0537 831.476 24.93 831.665 24.8291C831.854 24.7249 832.054 24.6452 832.266 24.5898C832.477 24.5312 832.699 24.502 832.93 24.502H834.209V30H833.208V25.4883H832.93C832.689 25.4883 832.463 25.5371 832.251 25.6348C832.043 25.7324 831.859 25.8659 831.699 26.0352C831.543 26.2044 831.419 26.403 831.328 26.6309C831.237 26.8587 831.191 27.1012 831.191 27.3584V30ZM841.396 30H835.654V24.4824H841.396V25.4883H836.665V28.9893H841.396V30ZM840.757 27.7197H837.139V26.709H840.757V27.7197ZM847.563 30C847.563 29.6354 847.502 29.2822 847.378 28.9404C847.257 28.5954 847.093 28.2715 846.885 27.9688C846.68 27.6628 846.44 27.3779 846.167 27.1143C845.897 26.8506 845.612 26.6162 845.312 26.4111C845.013 26.2028 844.707 26.0286 844.395 25.8887C844.085 25.7454 843.791 25.6396 843.511 25.5713V30H842.51V24.502H843.052V24.5117C843.41 24.5312 843.791 24.611 844.194 24.751C844.601 24.8877 845.005 25.0749 845.405 25.3125C845.809 25.5469 846.196 25.8268 846.567 26.1523C846.942 26.4746 847.274 26.8311 847.563 27.2217V24.502H848.56V30H847.563ZM853.042 30H852.041V25.4883H849.395V24.502H855.684V25.4883H853.042V30Z" fill="white"/>
<path d="M748.879 10.6165C748.879 11.2298 748.781 11.8045 748.585 12.3405C748.389 12.8714 748.113 13.3352 747.758 13.7321C747.402 14.1238 746.972 14.4331 746.466 14.6598C745.967 14.8866 745.412 15 744.804 15H740.916V13.3997H744.804C745.191 13.3997 745.536 13.3275 745.84 13.1832C746.144 13.0389 746.402 12.843 746.613 12.5956C746.83 12.3431 746.995 12.0493 747.108 11.7143C747.222 11.3741 747.278 11.0082 747.278 10.6165C747.278 10.2299 747.222 9.86911 747.108 9.5341C746.995 9.19908 746.83 8.90788 746.613 8.66048C746.402 8.41309 746.144 8.21723 745.84 8.07292C745.536 7.9286 745.191 7.85645 744.804 7.85645H740.166V15H738.55V6.26383H744.804C745.412 6.26383 745.967 6.37722 746.466 6.604C746.972 6.83078 747.402 7.14003 747.758 7.53174C748.113 7.92345 748.389 8.38474 748.585 8.91561C748.781 9.44132 748.879 10.0083 748.879 10.6165ZM752.211 15H750.641V6.29476H752.211V15ZM763.66 15H758.04C757.427 15 756.87 14.8866 756.37 14.6598C755.87 14.4331 755.442 14.1238 755.087 13.7321C754.731 13.3352 754.455 12.8714 754.259 12.3405C754.069 11.8045 753.973 11.2298 753.973 10.6165C753.973 10.0083 754.069 9.44132 754.259 8.91561C754.455 8.38474 754.731 7.92345 755.087 7.53174C755.442 7.14003 755.87 6.83078 756.37 6.604C756.87 6.37722 757.427 6.26383 758.04 6.26383H763.66V7.85645H758.04C757.659 7.85645 757.313 7.9286 757.004 8.07292C756.7 8.21723 756.442 8.41309 756.231 8.66048C756.02 8.90788 755.857 9.19908 755.744 9.5341C755.63 9.86911 755.574 10.2299 755.574 10.6165C755.574 11.0082 755.63 11.3741 755.744 11.7143C755.857 12.0493 756.02 12.3431 756.231 12.5956C756.442 12.843 756.7 13.0389 757.004 13.1832C757.313 13.3275 757.659 13.3997 758.04 13.3997H762.06V11.3896H757.522V9.78923H763.66V15ZM767.24 15H765.671V6.29476H767.24V15ZM774.337 15H772.752V7.85645H768.562V6.29476H778.52V7.85645H774.337V15ZM789.598 15H788.014V12.6111H781.914V10.9953H788.014V7.85645H783.893C783.506 7.85645 783.143 7.93118 782.803 8.08065C782.463 8.22496 782.166 8.42339 781.914 8.67594C781.661 8.92849 781.46 9.22485 781.311 9.56502C781.166 9.90004 781.094 10.2608 781.094 10.6474V15H779.494V10.6474C779.494 10.0392 779.61 9.46967 779.842 8.9388C780.074 8.40793 780.388 7.94406 780.785 7.5472C781.182 7.15034 781.648 6.83851 782.184 6.61173C782.72 6.3798 783.29 6.26383 783.893 6.26383H789.598V15ZM800.213 15H791.879V6.29476H793.464V13.4151H800.213V15ZM817.26 9.45679C817.26 9.88973 817.175 10.2995 817.005 10.686C816.84 11.0674 816.613 11.405 816.325 11.6988C816.041 11.9874 815.706 12.2168 815.32 12.3869C814.933 12.557 814.524 12.642 814.091 12.642H809.692V11.0726H814.091C814.312 11.0726 814.521 11.0288 814.717 10.9412C814.913 10.8535 815.083 10.7376 815.227 10.5933C815.371 10.4438 815.485 10.2711 815.567 10.0753C815.65 9.87942 815.691 9.67326 815.691 9.45679C815.691 9.23516 815.65 9.029 815.567 8.8383C815.485 8.64244 815.371 8.47236 815.227 8.32804C815.083 8.18373 814.913 8.07034 814.717 7.98787C814.521 7.90025 814.312 7.85645 814.091 7.85645H808.864V15H807.295V6.29476H814.091C814.524 6.29476 814.933 6.3798 815.32 6.54989C815.706 6.71482 816.041 6.9416 816.325 7.23022C816.613 7.5137 816.84 7.84871 817.005 8.23527C817.175 8.61667 817.26 9.02384 817.26 9.45679ZM827.056 15H818.722V6.29476H820.306V13.4151H827.056V15ZM838.366 15H836.781V12.6111H830.682V10.9953H836.781V7.85645H832.661C832.274 7.85645 831.911 7.93118 831.571 8.08065C831.23 8.22496 830.934 8.42339 830.682 8.67594C830.429 8.92849 830.228 9.22485 830.079 9.56502C829.934 9.90004 829.862 10.2608 829.862 10.6474V15H828.262V10.6474C828.262 10.0392 828.378 9.46967 828.61 8.9388C828.842 8.40793 829.156 7.94406 829.553 7.5472C829.95 7.15034 830.416 6.83851 830.952 6.61173C831.488 6.3798 832.058 6.26383 832.661 6.26383H838.366V15ZM845.463 15H843.879V7.85645H839.688V6.29476H849.646V7.85645H845.463V15ZM860.068 7.85645H852.561V15H850.96V6.26383H860.068V7.85645ZM859.039 11.3896H853.311V9.78923H859.039V11.3896ZM871.68 10.6319C871.68 11.2349 871.584 11.8019 871.394 12.3328C871.203 12.8585 870.93 13.3198 870.574 13.7166C870.224 14.1135 869.801 14.4279 869.306 14.6598C868.817 14.8866 868.27 15 867.667 15H864.915C864.312 15 863.763 14.8866 863.268 14.6598C862.773 14.4279 862.348 14.1135 861.993 13.7166C861.642 13.3198 861.372 12.8585 861.181 12.3328C860.99 11.8019 860.895 11.2349 860.895 10.6319C860.895 10.034 860.99 9.47225 861.181 8.94653C861.372 8.42082 861.642 7.9621 861.993 7.57039C862.348 7.17353 862.773 6.86171 863.268 6.63493C863.763 6.40815 864.312 6.29476 864.915 6.29476H867.667C868.27 6.29476 868.817 6.40815 869.306 6.63493C869.801 6.86171 870.224 7.17353 870.574 7.57039C870.93 7.9621 871.203 8.42082 871.394 8.94653C871.584 9.47225 871.68 10.034 871.68 10.6319ZM870.095 10.6319C870.095 10.2505 870.038 9.89231 869.925 9.55729C869.816 9.21712 869.657 8.92334 869.445 8.67594C869.239 8.42339 868.987 8.22496 868.688 8.08065C868.389 7.93118 868.049 7.85645 867.667 7.85645H864.915C864.534 7.85645 864.191 7.93118 863.887 8.08065C863.588 8.22496 863.333 8.42339 863.121 8.67594C862.915 8.92334 862.755 9.21712 862.642 9.55729C862.534 9.89231 862.48 10.2505 862.48 10.6319C862.48 11.0133 862.534 11.3741 862.642 11.7143C862.755 12.0493 862.915 12.3431 863.121 12.5956C863.333 12.8482 863.588 13.0492 863.887 13.1986C864.191 13.343 864.534 13.4151 864.915 13.4151H867.667C868.049 13.4151 868.389 13.343 868.688 13.1986C868.987 13.0492 869.239 12.8482 869.445 12.5956C869.657 12.3431 869.816 12.0493 869.925 11.7143C870.038 11.3741 870.095 11.0133 870.095 10.6319ZM883.678 15H881.521L879.047 12.642H875.839V11.0726H880.223C880.444 11.0726 880.653 11.0288 880.849 10.9412C881.045 10.8535 881.215 10.7376 881.359 10.5933C881.503 10.4438 881.617 10.2711 881.699 10.0753C881.782 9.87942 881.823 9.67326 881.823 9.45679C881.823 9.23516 881.782 9.029 881.699 8.8383C881.617 8.64244 881.503 8.47236 881.359 8.32804C881.215 8.18373 881.045 8.07034 880.849 7.98787C880.653 7.90025 880.444 7.85645 880.223 7.85645H875.012V15H873.427V6.29476H880.223C880.661 6.29476 881.073 6.3798 881.46 6.54989C881.846 6.71482 882.181 6.9416 882.465 7.23022C882.753 7.5137 882.98 7.84871 883.145 8.23527C883.31 8.61667 883.392 9.02384 883.392 9.45679C883.392 9.81242 883.336 10.1552 883.222 10.485C883.109 10.8097 882.949 11.1087 882.743 11.3818C882.542 11.6498 882.302 11.8818 882.024 12.0776C881.746 12.2735 881.442 12.4178 881.112 12.5106L883.678 15ZM891.657 15H890.072V10.6165C890.072 10.2351 890 9.87684 889.856 9.54183C889.711 9.20681 889.513 8.91561 889.26 8.66821C889.013 8.41566 888.719 8.21723 888.379 8.07292C888.044 7.9286 887.686 7.85645 887.304 7.85645H886.856V15H885.271V6.29476H887.304C887.675 6.29476 888.034 6.34115 888.379 6.43392C888.724 6.52154 889.049 6.64781 889.353 6.81274C889.662 6.97252 889.946 7.16838 890.203 7.40031C890.466 7.63224 890.696 7.88995 890.892 8.17342C891.093 7.88995 891.319 7.63224 891.572 7.40031C891.83 7.16838 892.108 6.97252 892.407 6.81274C892.706 6.64781 893.023 6.52154 893.358 6.43392C893.693 6.34115 894.043 6.29476 894.409 6.29476H896.435V15H894.85V7.85645H894.409C894.028 7.85645 893.67 7.93376 893.335 8.08838C893.005 8.243 892.713 8.45432 892.461 8.72233C892.214 8.99034 892.018 9.30474 891.873 9.66553C891.729 10.0263 891.657 10.4103 891.657 10.8175V15Z" fill="white"/>
<path d="M17.1445 102H16.1436V97.4883H13.4971V96.502H19.7861V97.4883H17.1445V102ZM26.3975 102H25.3965V99.7588H22.0908V98.7578H25.3965V96.502H26.3975V102ZM21.6172 102H20.6162V96.502H21.6172V102ZM33.585 102H27.8428V96.4824H33.585V97.4883H28.8535V100.989H33.585V102ZM32.9453 99.7197H29.3271V98.709H32.9453V99.7197ZM44.7422 102H43.7412V100.491H39.8887V99.4707H43.7412V97.4883H41.1387C40.8945 97.4883 40.665 97.5355 40.4502 97.6299C40.2354 97.721 40.0482 97.8464 39.8887 98.0059C39.7292 98.1654 39.6022 98.3525 39.5078 98.5674C39.4167 98.779 39.3711 99.0068 39.3711 99.251V102H38.3604V99.251C38.3604 98.8669 38.4336 98.5072 38.5801 98.1719C38.7266 97.8366 38.9251 97.5436 39.1758 97.293C39.4264 97.0423 39.721 96.8454 40.0596 96.7021C40.3981 96.5557 40.7578 96.4824 41.1387 96.4824H44.7422V102ZM49.2246 102H48.2236V97.4883H45.5771V96.502H51.8662V97.4883H49.2246V102ZM55.7383 102H54.7373V97.4883H52.0908V96.502H58.3799V97.4883H55.7383V102ZM65.377 102H64.376V100.491H60.5234V99.4707H64.376V97.4883H61.7734C61.5293 97.4883 61.2998 97.5355 61.085 97.6299C60.8701 97.721 60.6829 97.8464 60.5234 98.0059C60.3639 98.1654 60.237 98.3525 60.1426 98.5674C60.0514 98.779 60.0059 99.0068 60.0059 99.251V102H58.9951V99.251C58.9951 98.8669 59.0684 98.5072 59.2148 98.1719C59.3613 97.8366 59.5599 97.5436 59.8105 97.293C60.0612 97.0423 60.3558 96.8454 60.6943 96.7021C61.0329 96.5557 61.3926 96.4824 61.7734 96.4824H65.377V102ZM72.6084 102H69.0586C68.6712 102 68.3197 101.928 68.0039 101.785C67.6882 101.642 67.418 101.447 67.1934 101.199C66.9688 100.949 66.7946 100.656 66.6709 100.32C66.5505 99.9818 66.4902 99.6188 66.4902 99.2314C66.4902 98.8473 66.5505 98.4893 66.6709 98.1572C66.7946 97.8219 66.9688 97.5306 67.1934 97.2832C67.418 97.0358 67.6882 96.8405 68.0039 96.6973C68.3197 96.554 68.6712 96.4824 69.0586 96.4824H72.6084V97.4883H69.0586C68.8177 97.4883 68.5996 97.5339 68.4043 97.625C68.2122 97.7161 68.0495 97.8398 67.916 97.9961C67.7826 98.1523 67.68 98.3363 67.6084 98.5479C67.5368 98.7594 67.501 98.9873 67.501 99.2314C67.501 99.4788 67.5368 99.71 67.6084 99.9248C67.68 100.136 67.7826 100.322 67.916 100.481C68.0495 100.638 68.2122 100.761 68.4043 100.853C68.5996 100.944 68.8177 100.989 69.0586 100.989H72.6084V102ZM80.2354 102H78.8828L76.2461 99.3486L74.7227 100.452V102H73.7217V96.502H74.7227V99.2998L78.6533 96.502H80.1816L77.0127 98.792L80.2354 102ZM86.7393 102H80.9971V96.4824H86.7393V97.4883H82.0078V100.989H86.7393V102ZM86.0996 99.7197H82.4814V98.709H86.0996V99.7197ZM94.3271 102H92.9648L91.4023 100.511H89.376V99.5195H92.1445C92.2845 99.5195 92.4163 99.4919 92.54 99.4365C92.6637 99.3812 92.7712 99.3079 92.8623 99.2168C92.9535 99.1224 93.0251 99.0133 93.0771 98.8896C93.1292 98.766 93.1553 98.6357 93.1553 98.499C93.1553 98.359 93.1292 98.2288 93.0771 98.1084C93.0251 97.9847 92.9535 97.8773 92.8623 97.7861C92.7712 97.695 92.6637 97.6234 92.54 97.5713C92.4163 97.516 92.2845 97.4883 92.1445 97.4883H88.8535V102H87.8525V96.502H92.1445C92.4212 96.502 92.6816 96.5557 92.9258 96.6631C93.1699 96.7673 93.3815 96.9105 93.5605 97.0928C93.7428 97.2718 93.8861 97.4834 93.9902 97.7275C94.0944 97.9684 94.1465 98.2256 94.1465 98.499C94.1465 98.7236 94.1107 98.9401 94.0391 99.1484C93.9674 99.3535 93.8665 99.5423 93.7363 99.7148C93.6094 99.8841 93.458 100.031 93.2822 100.154C93.1064 100.278 92.9144 100.369 92.7061 100.428L94.3271 102Z" fill="white"/>
<path d="M52.9857 135H41.153C39.8618 135 38.6899 134.761 37.6374 134.284C36.5848 133.806 35.6842 133.155 34.9355 132.331C34.1868 131.495 33.6063 130.519 33.194 129.401C32.7925 128.273 32.5918 127.063 32.5918 125.771C32.5918 124.491 32.7925 123.298 33.194 122.191C33.6063 121.073 34.1868 120.102 34.9355 119.277C35.6842 118.453 36.5848 117.802 37.6374 117.324C38.6899 116.847 39.8618 116.608 41.153 116.608H52.9857V119.961H41.153C40.35 119.961 39.623 120.113 38.972 120.417C38.3318 120.72 37.7893 121.133 37.3444 121.654C36.8995 122.174 36.5577 122.788 36.319 123.493C36.0803 124.198 35.9609 124.958 35.9609 125.771C35.9609 126.596 36.0803 127.367 36.319 128.083C36.5577 128.788 36.8995 129.406 37.3444 129.938C37.7893 130.459 38.3318 130.871 38.972 131.175C39.623 131.479 40.35 131.631 41.153 131.631H52.9857V135ZM77.0417 129.596C77.0417 130.345 76.8626 131.05 76.5046 131.712C76.1573 132.363 75.6799 132.933 75.0723 133.421C74.4755 133.91 73.7702 134.295 72.9564 134.577C72.1426 134.859 71.2799 135 70.3685 135H56.0293V131.663H70.3685C70.8242 131.663 71.2528 131.615 71.6543 131.517C72.0666 131.408 72.4247 131.262 72.7285 131.077C73.0323 130.882 73.271 130.66 73.4447 130.41C73.6183 130.161 73.7051 129.889 73.7051 129.596V128.766H62.6699C61.7585 128.766 60.8958 128.593 60.082 128.245C59.2791 127.887 58.5738 127.41 57.9661 126.813C57.3693 126.206 56.8973 125.5 56.5501 124.697C56.2029 123.883 56.0293 123.015 56.0293 122.093V116.673H59.3333V122.093C59.3333 122.56 59.4201 122.999 59.5937 123.411C59.7674 123.813 60.0061 124.166 60.3099 124.469C60.6137 124.762 60.9664 124.996 61.3678 125.169C61.7802 125.343 62.2142 125.43 62.6699 125.43H73.7051V116.673H77.0417V129.596ZM103.376 129.531C103.376 130.291 103.23 131.002 102.937 131.663C102.655 132.325 102.264 132.906 101.765 133.405C101.266 133.893 100.68 134.284 100.007 134.577C99.3453 134.859 98.6345 135 97.875 135H86.6445V131.631H97.875C98.1788 131.631 98.4609 131.577 98.7213 131.468C98.9818 131.36 99.2042 131.213 99.3887 131.029C99.584 130.833 99.7359 130.611 99.8444 130.361C99.9529 130.101 100.007 129.824 100.007 129.531C100.007 129.227 99.9529 128.945 99.8444 128.685C99.7359 128.424 99.584 128.202 99.3887 128.018C99.2042 127.822 98.9818 127.67 98.7213 127.562C98.4609 127.453 98.1788 127.399 97.875 127.399H86.6445V124.03H95.1406C95.4661 124.019 95.77 123.959 96.0521 123.851C96.3342 123.742 96.5783 123.601 96.7845 123.428C97.0015 123.243 97.1697 123.032 97.2891 122.793C97.4084 122.543 97.4681 122.278 97.4681 121.995C97.4681 121.702 97.4138 121.437 97.3053 121.198C97.1968 120.948 97.0449 120.731 96.8496 120.547C96.6651 120.362 96.4427 120.221 96.1823 120.124C95.9327 120.015 95.6615 119.961 95.3685 119.961H85.0657V135H81.6641V116.608H95.3685C96.1172 116.608 96.8225 116.749 97.4844 117.031C98.1571 117.313 98.7376 117.699 99.2259 118.187C99.725 118.664 100.116 119.234 100.398 119.896C100.691 120.547 100.837 121.247 100.837 121.995C100.837 122.473 100.772 122.923 100.642 123.346C100.523 123.77 100.354 124.166 100.137 124.535C100.615 124.752 101.049 125.034 101.439 125.381C101.841 125.717 102.183 126.102 102.465 126.536C102.758 126.97 102.98 127.442 103.132 127.952C103.295 128.452 103.376 128.978 103.376 129.531ZM125.967 135H106.827V116.608H125.967V119.961H110.196V131.631H125.967V135ZM123.835 127.399H111.775V124.03H123.835V127.399ZM151.26 135H146.719L141.511 130.036H134.757V126.732H143.985C144.452 126.732 144.891 126.64 145.303 126.455C145.716 126.271 146.074 126.026 146.378 125.723C146.681 125.408 146.92 125.044 147.094 124.632C147.267 124.22 147.354 123.786 147.354 123.33C147.354 122.863 147.267 122.429 147.094 122.028C146.92 121.616 146.681 121.258 146.378 120.954C146.074 120.65 145.716 120.411 145.303 120.238C144.891 120.053 144.452 119.961 143.985 119.961H133.015V135H129.678V116.673H143.985C144.907 116.673 145.775 116.852 146.589 117.21C147.403 117.558 148.108 118.035 148.705 118.643C149.313 119.239 149.79 119.945 150.137 120.758C150.485 121.561 150.658 122.419 150.658 123.33C150.658 124.079 150.539 124.8 150.3 125.495C150.061 126.178 149.725 126.808 149.291 127.383C148.868 127.947 148.363 128.435 147.777 128.848C147.191 129.26 146.551 129.564 145.857 129.759L151.26 135ZM175.593 123.33C175.593 124.242 175.414 125.104 175.056 125.918C174.709 126.721 174.231 127.432 173.624 128.05C173.027 128.658 172.322 129.141 171.508 129.499C170.694 129.857 169.831 130.036 168.92 130.036H159.659V126.732H168.92C169.387 126.732 169.826 126.64 170.238 126.455C170.651 126.271 171.009 126.026 171.313 125.723C171.616 125.408 171.855 125.044 172.029 124.632C172.202 124.22 172.289 123.786 172.289 123.33C172.289 122.863 172.202 122.429 172.029 122.028C171.855 121.616 171.616 121.258 171.313 120.954C171.009 120.65 170.651 120.411 170.238 120.238C169.826 120.053 169.387 119.961 168.92 119.961H157.917V135H154.613V116.673H168.92C169.831 116.673 170.694 116.852 171.508 117.21C172.322 117.558 173.027 118.035 173.624 118.643C174.231 119.239 174.709 119.945 175.056 120.758C175.414 121.561 175.593 122.419 175.593 123.33ZM200.284 125.804C200.284 127.074 200.083 128.267 199.682 129.385C199.28 130.492 198.705 131.463 197.956 132.298C197.219 133.134 196.329 133.796 195.287 134.284C194.256 134.761 193.106 135 191.837 135H186.042C184.773 135 183.617 134.761 182.576 134.284C181.534 133.796 180.639 133.134 179.89 132.298C179.152 131.463 178.582 130.492 178.181 129.385C177.78 128.267 177.579 127.074 177.579 125.804C177.579 124.545 177.78 123.363 178.181 122.256C178.582 121.149 179.152 120.183 179.89 119.359C180.639 118.523 181.534 117.867 182.576 117.389C183.617 116.912 184.773 116.673 186.042 116.673H191.837C193.106 116.673 194.256 116.912 195.287 117.389C196.329 117.867 197.219 118.523 197.956 119.359C198.705 120.183 199.28 121.149 199.682 122.256C200.083 123.363 200.284 124.545 200.284 125.804ZM196.947 125.804C196.947 125.001 196.828 124.247 196.589 123.542C196.361 122.826 196.025 122.207 195.58 121.686C195.146 121.155 194.614 120.737 193.985 120.433C193.356 120.118 192.64 119.961 191.837 119.961H186.042C185.239 119.961 184.518 120.118 183.878 120.433C183.248 120.737 182.711 121.155 182.266 121.686C181.832 122.207 181.496 122.826 181.257 123.542C181.029 124.247 180.915 125.001 180.915 125.804C180.915 126.607 181.029 127.367 181.257 128.083C181.496 128.788 181.832 129.406 182.266 129.938C182.711 130.47 183.248 130.893 183.878 131.208C184.518 131.512 185.239 131.663 186.042 131.663H191.837C192.64 131.663 193.356 131.512 193.985 131.208C194.614 130.893 195.146 130.47 195.58 129.938C196.025 129.406 196.361 128.788 196.589 128.083C196.828 127.367 196.947 126.607 196.947 125.804ZM221.508 135H203.962V116.673H207.299V131.663H221.508V135ZM244.685 129.596C244.685 130.345 244.506 131.05 244.148 131.712C243.801 132.363 243.323 132.933 242.715 133.421C242.119 133.91 241.413 134.295 240.6 134.577C239.786 134.859 238.923 135 238.012 135H223.673V131.663H238.012C238.467 131.663 238.896 131.615 239.298 131.517C239.71 131.408 240.068 131.262 240.372 131.077C240.676 130.882 240.914 130.66 241.088 130.41C241.262 130.161 241.348 129.889 241.348 129.596V128.766H230.313C229.402 128.766 228.539 128.593 227.725 128.245C226.922 127.887 226.217 127.41 225.609 126.813C225.013 126.206 224.541 125.5 224.193 124.697C223.846 123.883 223.673 123.015 223.673 122.093V116.673H226.977V122.093C226.977 122.56 227.063 122.999 227.237 123.411C227.411 123.813 227.649 124.166 227.953 124.469C228.257 124.762 228.61 124.996 229.011 125.169C229.423 125.343 229.857 125.43 230.313 125.43H241.348V116.673H244.685V129.596ZM268.611 135H256.778C255.487 135 254.315 134.761 253.262 134.284C252.21 133.806 251.309 133.155 250.561 132.331C249.812 131.495 249.231 130.519 248.819 129.401C248.418 128.273 248.217 127.063 248.217 125.771C248.217 124.491 248.418 123.298 248.819 122.191C249.231 121.073 249.812 120.102 250.561 119.277C251.309 118.453 252.21 117.802 253.262 117.324C254.315 116.847 255.487 116.608 256.778 116.608H268.611V119.961H256.778C255.975 119.961 255.248 120.113 254.597 120.417C253.957 120.72 253.414 121.133 252.969 121.654C252.525 122.174 252.183 122.788 251.944 123.493C251.705 124.198 251.586 124.958 251.586 125.771C251.586 126.596 251.705 127.367 251.944 128.083C252.183 128.788 252.525 129.406 252.969 129.938C253.414 130.459 253.957 130.871 254.597 131.175C255.248 131.479 255.975 131.631 256.778 131.631H265.242V127.399H255.688V124.03H268.611V135ZM294.457 125.804C294.457 127.074 294.256 128.267 293.855 129.385C293.453 130.492 292.878 131.463 292.13 132.298C291.392 133.134 290.502 133.796 289.46 134.284C288.429 134.761 287.279 135 286.01 135H280.216C278.946 135 277.79 134.761 276.749 134.284C275.707 133.796 274.812 133.134 274.063 132.298C273.325 131.463 272.756 130.492 272.354 129.385C271.953 128.267 271.752 127.074 271.752 125.804C271.752 124.545 271.953 123.363 272.354 122.256C272.756 121.149 273.325 120.183 274.063 119.359C274.812 118.523 275.707 117.867 276.749 117.389C277.79 116.912 278.946 116.673 280.216 116.673H286.01C287.279 116.673 288.429 116.912 289.46 117.389C290.502 117.867 291.392 118.523 292.13 119.359C292.878 120.183 293.453 121.149 293.855 122.256C294.256 123.363 294.457 124.545 294.457 125.804ZM291.12 125.804C291.12 125.001 291.001 124.247 290.762 123.542C290.535 122.826 290.198 122.207 289.753 121.686C289.319 121.155 288.788 120.737 288.158 120.433C287.529 120.118 286.813 119.961 286.01 119.961H280.216C279.413 119.961 278.691 120.118 278.051 120.433C277.421 120.737 276.884 121.155 276.439 121.686C276.005 122.207 275.669 122.826 275.43 123.542C275.202 124.247 275.089 125.001 275.089 125.804C275.089 126.607 275.202 127.367 275.43 128.083C275.669 128.788 276.005 129.406 276.439 129.938C276.884 130.47 277.421 130.893 278.051 131.208C278.691 131.512 279.413 131.663 280.216 131.663H286.01C286.813 131.663 287.529 131.512 288.158 131.208C288.788 130.893 289.319 130.47 289.753 129.938C290.198 129.406 290.535 128.788 290.762 128.083C291.001 127.367 291.12 126.607 291.12 125.804ZM314.981 135C314.981 133.785 314.775 132.607 314.363 131.468C313.961 130.318 313.413 129.238 312.719 128.229C312.035 127.209 311.238 126.26 310.326 125.381C309.426 124.502 308.476 123.721 307.478 123.037C306.48 122.343 305.46 121.762 304.418 121.296C303.387 120.818 302.405 120.465 301.472 120.238V135H298.135V116.673H299.942V116.706C301.136 116.771 302.405 117.037 303.751 117.503C305.107 117.959 306.452 118.583 307.787 119.375C309.133 120.156 310.424 121.089 311.661 122.174C312.909 123.249 314.015 124.437 314.981 125.739V116.673H318.301V135H314.981Z" fill="white"/>
<path d="M7.5 87.0352L115.797 87.0352M115.797 87.0352L124 83.4961L129.5 87.0352L124 91.5L115.797 87.0352Z" stroke="#005E5E" stroke-width="3.57344"/>
<rect y="82" width="11" height="11" fill="#D9D9D9"/>
</svg>
