<svg width="634" height="900" viewBox="0 0 634 900" fill="none" xmlns="http://www.w3.org/2000/svg">
<path d="M631.998 241.555C632.985 241.555 633.785 242.355 633.785 243.342C633.785 244.329 632.985 245.129 631.998 245.129V241.555ZM240.036 444.844L241.282 446.125L240.762 446.63H240.036V444.844ZM386.08 302.911L384.835 301.63L385.355 301.124H386.08V302.911ZM442.423 302.911L443.695 304.166L443.17 304.698H442.423V302.911ZM497.301 247.313L498.573 248.569L497.301 247.313ZM501.221 243.342L499.95 242.087L500.474 241.555H501.221V243.342ZM-57.6758 443.057H95.9822V446.63H-57.6758V443.057ZM95.9822 443.057H172.811V446.63H95.9822V443.057ZM172.811 443.057L211.226 443.057V446.63L172.811 446.63V443.057ZM211.226 443.057H230.433V446.63H211.226V443.057ZM230.433 443.057H240.036V446.63H230.433V443.057ZM238.791 443.562L314.169 370.307L316.659 372.87L241.282 446.125L238.791 443.562ZM314.169 370.307L351.857 333.679L354.348 336.242L316.659 372.87L314.169 370.307ZM351.857 333.679L370.701 315.365L373.192 317.928L354.348 336.242L351.857 333.679ZM370.701 315.365L380.124 306.208L382.614 308.771L373.192 317.928L370.701 315.365ZM380.124 306.208L384.835 301.63L387.325 304.192L382.614 308.771L380.124 306.208ZM386.08 301.124H416.13V304.698H386.08V301.124ZM416.13 301.124H431.154V304.698H416.13V301.124ZM431.154 301.124H438.667V304.698H431.154V301.124ZM438.667 301.124H442.423V304.698H438.667V301.124ZM441.152 301.656L472.51 269.886L475.054 272.396L443.695 304.166L441.152 301.656ZM472.51 269.886L488.19 254.001L490.733 256.511L475.054 272.396L472.51 269.886ZM488.19 254.001L496.03 246.058L498.573 248.569L490.733 256.511L488.19 254.001ZM496.03 246.058L499.95 242.087L502.493 244.597L498.573 248.569L496.03 246.058ZM501.221 241.555L631.998 241.555V245.129L501.221 245.129V241.555Z" fill="#005E5E"/>
<path d="M316.196 238.237C316.893 237.539 318.025 237.539 318.722 238.237C319.42 238.934 319.42 240.066 318.722 240.763L316.196 238.237ZM237.803 430.547L239.028 431.848L238.512 432.334H237.803V430.547ZM256.787 412.68H258.574V413.452L258.012 413.981L256.787 412.68ZM256.787 300.172H255V299.432L255.524 298.909L256.787 300.172ZM-57.6758 428.76H92.4087V432.334H-57.6758V428.76ZM92.4087 428.76H167.451V432.334H92.4087V428.76ZM167.451 428.76L204.972 428.76V432.334L167.451 432.334V428.76ZM204.972 428.76H223.733V432.334H204.972V428.76ZM223.733 428.76H233.113V432.334H223.733V428.76ZM233.113 428.76H237.803V432.334H233.113V428.76ZM236.579 429.246L246.07 420.312L248.52 422.914L239.028 431.848L236.579 429.246ZM246.07 420.312L250.816 415.845L253.266 418.448L248.52 422.914L246.07 420.312ZM250.816 415.845L255.562 411.379L258.012 413.981L253.266 418.448L250.816 415.845ZM255 412.68V354.611H258.574V412.68H255ZM255 354.611V325.577H258.574V354.611H255ZM255 325.577V311.06H258.574V325.577H255ZM255 311.06V303.801H258.574V311.06H255ZM255 303.801V300.172H258.574V303.801H255ZM255.524 298.909L316.196 238.237L318.722 240.763L258.05 301.436L255.524 298.909Z" fill="#005E5E"/>
<path d="M531.729 0.738068C532.424 0.0373535 533.555 0.0325623 534.256 0.727356C534.957 1.42215 534.962 2.55344 534.267 3.25412L531.729 0.738068ZM237.803 416.25L239.066 417.513L238.543 418.037H237.803V416.25ZM246.067 407.986H247.853V408.727L247.33 409.25L246.067 407.986ZM246.067 291.368H244.28V290.632L244.798 290.11L246.067 291.368ZM-57.6758 414.463H92.4087V418.037H-57.6758V414.463ZM92.4087 414.463H167.451V418.037H92.4087V414.463ZM167.451 414.463L204.972 414.463V418.037L167.451 418.037V414.463ZM204.972 414.463H223.733V418.037H204.972V414.463ZM223.733 414.463H233.113V418.037H223.733V414.463ZM233.113 414.463H237.803V418.037H233.113V414.463ZM236.54 414.987L244.803 406.723L247.33 409.25L239.066 417.513L236.54 414.987ZM244.28 407.986V347.796H247.853V407.986H244.28ZM244.28 347.796V317.701H247.853V347.796H244.28ZM244.28 317.701V302.654H247.853V317.701H244.28ZM244.28 302.654V295.13H247.853V302.654H244.28ZM244.28 295.13V291.368H247.853V295.13H244.28ZM244.798 290.11L531.729 0.738068L534.267 3.25412L247.335 292.626L244.798 290.11Z" fill="#005E5E"/>
<path d="M-57.6758 520.792H-59.4625V517.218H-57.6758V520.792ZM347.91 564.12C348.897 564.12 349.696 564.919 349.696 565.906C349.696 566.893 348.897 567.693 347.91 567.693V564.12ZM104.916 519.005V517.218H105.656L106.179 517.741L104.916 519.005ZM151.817 565.906V567.693H151.077L150.554 567.17L151.817 565.906ZM-57.6758 517.218H22.7266V520.792H-57.6758V517.218ZM22.7266 517.218H62.9278V520.792H22.7266V517.218ZM62.9278 517.218H83.0284V520.792H62.9278V517.218ZM83.0284 517.218H93.0787V520.792H83.0284V517.218ZM93.0787 517.218H98.1039V520.792H93.0787V517.218ZM98.1039 517.218H104.916V520.792H98.1039V517.218ZM106.179 517.741L131.193 542.756L128.666 545.282L103.652 520.268L106.179 517.741ZM131.193 542.756L143.7 555.263L141.173 557.789L128.666 545.282L131.193 542.756ZM143.7 555.263L149.954 561.516L147.427 564.043L141.173 557.789L143.7 555.263ZM149.954 561.516L153.081 564.643L150.554 567.17L147.427 564.043L149.954 561.516ZM151.817 564.12H347.91V567.693H151.817V564.12Z" fill="#005E5E"/>
<path d="M186.246 704.928C187.233 704.928 188.033 705.728 188.033 706.715C188.033 707.702 187.233 708.502 186.246 708.502L186.246 704.928ZM-69.2549 621.706L-69.2549 623.493L-71.0416 623.493L-71.0416 621.706L-69.2549 621.706ZM-35.3072 621.706L-35.3072 619.919L-35.3072 621.706ZM-5.60299 621.706L-5.60299 619.919L-4.8377 619.919L-4.30969 620.473L-5.60299 621.706ZM37.6133 667.044L38.9066 665.811L37.6133 667.044ZM59.2215 689.713L60.5147 688.48L59.2215 689.713ZM70.0255 701.048L71.3188 699.815L70.0255 701.048ZM75.4276 706.715L75.4276 708.502L74.6623 708.502L74.1343 707.948L75.4276 706.715ZM-71.0416 587.312L-71.0416 548.004L-67.4682 548.004L-67.4682 587.312L-71.0416 587.312ZM-71.0416 606.966L-71.0416 587.312L-67.4682 587.312L-67.4682 606.966L-71.0416 606.966ZM-71.0416 616.793L-71.0416 606.966L-67.4682 606.966L-67.4682 616.793L-71.0416 616.793ZM-71.0416 621.706L-71.0416 616.793L-67.4682 616.793L-67.4682 621.706L-71.0416 621.706ZM-35.3072 623.493L-69.2549 623.493L-69.2549 619.919L-35.3072 619.919L-35.3072 623.493ZM-18.3334 623.493L-35.3072 623.493L-35.3072 619.919L-18.3334 619.919L-18.3334 623.493ZM-9.84645 623.493L-18.3334 623.493L-18.3334 619.919L-9.84645 619.919L-9.84645 623.493ZM-5.60299 623.493L-9.84645 623.493L-9.84645 619.919L-5.60299 619.919L-5.60299 623.493ZM36.32 668.277L-6.8963 622.939L-4.30969 620.473L38.9066 665.811L36.32 668.277ZM57.9281 690.946L36.32 668.277L38.9066 665.811L60.5147 688.48L57.9281 690.946ZM68.7322 702.28L57.9281 690.946L60.5147 688.48L71.3188 699.815L68.7322 702.28ZM186.246 708.502L75.4276 708.502L75.4276 704.928L186.246 704.928L186.246 708.502ZM74.1343 707.948L68.7322 702.28L71.3188 699.815L76.7209 705.482L74.1343 707.948Z" fill="#005E5E"/>
<path d="M157.263 895.979C157.961 896.677 157.961 897.808 157.263 898.506C156.566 899.203 155.434 899.203 154.737 898.506L157.263 895.979ZM-100.999 627.473L-100.999 629.26L-102.786 629.26L-102.786 627.473L-100.999 627.473ZM-33.4949 627.473L-33.4949 625.687L-32.7606 625.687L-32.2385 626.203L-33.4949 627.473ZM9.58059 670.075L8.32419 671.346L8.32418 671.346L9.58059 670.075ZM31.1184 691.376L32.3748 690.106L31.1184 691.376ZM41.8873 702.027L43.1437 700.757L41.8873 702.027ZM47.2717 707.352L46.0153 708.623L47.2717 707.352ZM49.964 710.015L51.2204 708.744L51.7504 709.269L51.7507 710.014L49.964 710.015ZM49.9793 753.332L51.766 753.331L49.9793 753.332ZM49.9869 774.99L48.2002 774.991L49.9869 774.99ZM49.9907 785.819L51.7774 785.819L51.7774 785.819L49.9907 785.819ZM49.9926 791.234L48.7292 792.497L48.2062 791.974L48.2059 791.234L49.9926 791.234ZM-102.786 582.247L-102.786 534.005L-99.2128 534.005L-99.2128 582.247L-102.786 582.247ZM-102.786 606.368L-102.786 582.247L-99.2128 582.247L-99.2128 606.368L-102.786 606.368ZM-102.786 618.428L-102.786 606.368L-99.2128 606.368L-99.2128 618.428L-102.786 618.428ZM-102.786 624.458L-102.786 618.428L-99.2128 618.428L-99.2127 624.458L-102.786 624.458ZM-102.786 627.473L-102.786 624.458L-99.2127 624.458L-99.2127 627.473L-102.786 627.473ZM-66.1584 629.26L-100.999 629.26L-100.999 625.687L-66.1584 625.687L-66.1584 629.26ZM-48.7379 629.26L-66.1584 629.26L-66.1584 625.687L-48.7379 625.687L-48.7379 629.26ZM-40.0276 629.26L-48.7379 629.26L-48.7379 625.687L-40.0276 625.687L-40.0276 629.26ZM-35.6725 629.26L-40.0276 629.26L-40.0276 625.687L-35.6725 625.687L-35.6725 629.26ZM-33.4949 629.26L-35.6725 629.26L-35.6725 625.687L-33.4949 625.687L-33.4949 629.26ZM8.32418 671.346L-34.7514 628.744L-32.2385 626.203L10.837 668.805L8.32418 671.346ZM29.862 692.647L8.32419 671.346L10.837 668.805L32.3748 690.106L29.862 692.647ZM40.6309 703.297L29.862 692.647L32.3748 690.106L43.1437 700.757L40.6309 703.297ZM46.0153 708.623L40.6309 703.297L43.1437 700.757L48.5281 706.082L46.0153 708.623ZM48.7076 711.285L46.0153 708.623L48.5281 706.082L51.2204 708.744L48.7076 711.285ZM48.1925 753.332L48.1772 710.015L51.7507 710.014L51.766 753.331L48.1925 753.332ZM48.2002 774.991L48.1925 753.332L51.766 753.331L51.7736 774.989L48.2002 774.991ZM48.204 785.82L48.2002 774.991L51.7736 774.989L51.7774 785.819L48.204 785.82ZM154.737 898.506L48.7292 792.497L51.256 789.97L157.263 895.979L154.737 898.506ZM48.2059 791.234L48.204 785.82L51.7774 785.819L51.7794 791.233L48.2059 791.234Z" fill="#005E5E"/>
</svg>
